<svg xmlns="http://www.w3.org/2000/svg" version="1.1" xmlns:xlink="http://www.w3.org/1999/xlink" xmlns:svgjs="http://svgjs.dev/svgjs" width="1000" height="1000" viewBox="0 0 1000 1000"><rect width="1000" height="1000" fill="#ffffff"></rect><g transform="matrix(0.7,0,0,0.7,150.28340080971662,150.28397883362504)"><svg viewBox="0 0 247 247" data-background-color="#ffffff" preserveAspectRatio="xMidYMid meet" height="1000" width="1000" xmlns="http://www.w3.org/2000/svg" xmlns:xlink="http://www.w3.org/1999/xlink"><g id="tight-bounds" transform="matrix(1,0,0,1,-0.09999999999999432,-0.10008677999891802)"><svg viewBox="0 0 247.2 247.2" height="247.2" width="247.2"><g><svg viewBox="0 0 247.2 247.2" height="247.2" width="247.2"><g><svg viewBox="0 0 247.2 247.2" height="247.2" width="247.2"><g><svg viewBox="0 0 247.2 247.2" height="247.2" width="247.2"><g id="textblocktransform"><svg viewBox="0 0 247.2 247.2" height="247.2" width="247.2" id="textblock"><g><svg viewBox="0 0 247.2 247.2" height="247.2" width="247.2"><g transform="matrix(1,0,0,1,36.20160184534272,71.22155274586476)"><svg viewBox="0 0 174.79679630931454 104.75689450827048" height="104.75689450827048" width="174.79679630931454"><g><svg xmlns="http://www.w3.org/2000/svg" data-name="Layer 1" viewBox="0.20105548202991486 1.3712201118469238 4.355067729949951 2.6100213527679443" x="0" y="0" height="104.75689450827048" width="174.79679630931454" class="icon-o-0" data-fill-palette-color="accent" id="o-0"><path d="M1.217 3.948C1.105 3.828 0.979 3.721 0.857 3.611a1.347 1.347 0 0 1-0.181-0.176 0.844 0.844 0 0 1-0.099-0.198C0.516 3.086 0.462 2.934 0.414 2.778a0.886 0.886 0 0 0-0.188-0.377c-0.01-0.01-0.031-0.001-0.023 0.013 0.151 0.286 0.216 0.608 0.342 0.906a0.826 0.826 0 0 0 0.234 0.302c0.134 0.121 0.265 0.247 0.409 0.355C1.206 3.991 1.233 3.966 1.217 3.948Z" fill="#000000" data-fill-palette-color="accent"></path><path d="M0.953 3.052C0.904 2.969 0.832 2.9 0.778 2.82 0.72 2.732 0.679 2.636 0.63 2.544a0.293 0.293 0 0 0-0.33-0.173 0.013 0.013 0 0 0 0.004 0.025c0.224-0.018 0.266 0.211 0.35 0.365a0.838 0.838 0 0 0 0.266 0.324A0.024 0.024 0 0 0 0.953 3.052Z" fill="#000000" data-fill-palette-color="accent"></path><path d="M1.196 3.013a2.273 2.273 0 0 0-0.262-0.578C0.846 2.279 0.716 2.313 0.579 2.389c-0.014 0.008-0.005 0.03 0.009 0.023 0.084-0.038 0.194-0.075 0.265 0.009A1.256 1.256 0 0 1 0.966 2.632c0.068 0.129 0.131 0.26 0.198 0.39C1.172 3.037 1.201 3.033 1.196 3.013Z" fill="#000000" data-fill-palette-color="accent"></path><path d="M1.233 2.327c-0.037-0.072-0.079-0.174-0.174-0.172a0.345 0.345 0 0 0-0.215 0.124c-0.01 0.01 0.007 0.026 0.018 0.017a0.456 0.456 0 0 1 0.126-0.076c0.091-0.032 0.134 0.032 0.173 0.1a1.893 1.893 0 0 1 0.114 0.249c0.065 0.172 0.102 0.353 0.165 0.525A0.019 0.019 0 0 0 1.475 3.084 2.406 2.406 0 0 0 1.233 2.327Z" fill="#000000" data-fill-palette-color="accent"></path><path d="M1.493 2.298c-0.049-0.093-0.166-0.242-0.274-0.129-0.012 0.012 0.007 0.027 0.02 0.02 0.225-0.138 0.35 0.604 0.378 0.72 0.004 0.018 0.034 0.021 0.035 0A1.191 1.191 0 0 0 1.493 2.298Z" fill="#000000" data-fill-palette-color="accent"></path><path d="M1.719 2.255c-0.04-0.107-0.137-0.09-0.22-0.033-0.012 0.008 0 0.027 0.013 0.022 0.077-0.031 0.124-0.036 0.161 0.049a0.848 0.848 0 0 1 0.041 0.16c0.019 0.09 0.027 0.182 0.041 0.273a0.016 0.016 0 0 0 0.032-0.001A1.065 1.065 0 0 0 1.719 2.255Z" fill="#000000" data-fill-palette-color="accent"></path><path d="M3.821 1.649A0.757 0.757 0 0 0 3.512 1.524 0.785 0.785 0 0 0 3.15 1.49c-0.128 0.034-0.254 0.077-0.38 0.122-0.056 0.003-0.115-0.007-0.132-0.059-0.004-0.013-0.027-0.007-0.024 0.006a0.109 0.109 0 0 0 0.077 0.081c-0.12 0.043-0.24 0.087-0.36 0.126a0.012 0.012 0 0 0 0.003 0.024 1.041 1.041 0 0 0 0.33-0.077c0.128-0.04 0.255-0.081 0.382-0.124a0.534 0.534 0 0 1 0.218-0.046 1.699 1.699 0 0 1 0.177 0.03 2.288 2.288 0 0 1 0.356 0.118A0.024 0.024 0 0 0 3.821 1.649Z" fill="#000000" data-fill-palette-color="accent"></path><path d="M3.819 1.868a1.169 1.169 0 0 0-0.732-0.138 6.73 6.73 0 0 1-0.831 0.202c-0.015 0.002-0.015 0.027 0 0.027a2.756 2.756 0 0 0 0.743-0.144 0.723 0.723 0 0 1 0.234-0.047 1.33 1.33 0 0 1 0.184 0.031c0.131 0.028 0.257 0.106 0.389 0.121A0.027 0.027 0 0 0 3.819 1.868Z" fill="#000000" data-fill-palette-color="accent"></path><path d="M3.684 2.167a0.725 0.725 0 0 0-0.097-0.003c-0.112-0.039-0.227-0.07-0.339-0.104a0.504 0.504 0 0 0-0.264-0.03 1.766 1.766 0 0 1-0.735 0.045c-0.013-0.003-0.018 0.018-0.005 0.022a1.207 1.207 0 0 0 0.63 0.019c0.05-0.01 0.1-0.025 0.15-0.032a0.463 0.463 0 0 1 0.199 0.037c0.059 0.018 0.118 0.038 0.178 0.056-0.021 0.002-0.041 0.003-0.061 0.005-0.125 0.007-0.249 0.013-0.374 0.015-0.259 0.005-0.518-0.002-0.777-0.019a0.013 0.013 0 0 0-0.003 0.025 3.627 3.627 0 0 0 0.747 0.06c0.12-0.001 0.24-0.005 0.36-0.011a2.113 2.113 0 0 0 0.391-0.029A0.028 0.028 0 0 0 3.684 2.167Z" fill="#000000" data-fill-palette-color="accent"></path><path d="M3.843 3.007a1.803 1.803 0 0 0-0.309-0.09c-0.091-0.025-0.184-0.045-0.273-0.077a1.581 1.581 0 0 1-0.417-0.278c0.098 0.015 0.196 0.031 0.294 0.052 0.147 0.032 0.28 0.092 0.422 0.133 0.033 0.009 0.065-0.034 0.032-0.057a1.717 1.717 0 0 0-0.687-0.195c-0.129-0.02-0.258-0.037-0.387-0.055-0.13-0.018-0.299-0.016-0.375-0.142-0.008-0.014-0.027 0-0.023 0.013a0.245 0.245 0 0 0 0.186 0.161 4.092 4.092 0 0 0 0.416 0.07l0.053 0.009a1.216 1.216 0 0 0 0.427 0.353 1.775 1.775 0 0 0 0.258 0.075 2.033 2.033 0 0 0 0.37 0.08A0.028 0.028 0 0 0 3.843 3.007Z" fill="#000000" data-fill-palette-color="accent"></path><path d="M3.737 1.423c-0.093-0.011-0.187-0.016-0.28-0.028a1.135 1.135 0 0 0-0.237-0.024 2.485 2.485 0 0 0-0.501 0.137c-0.014 0.004-0.007 0.027 0.007 0.024 0.083-0.017 0.167-0.031 0.25-0.05a1.463 1.463 0 0 1 0.237-0.047 1.603 1.603 0 0 1 0.271 0.033c0.081 0.01 0.163 0.018 0.245 0.022A0.034 0.034 0 0 0 3.737 1.423Z" fill="#000000" data-fill-palette-color="accent"></path><path d="M4.552 2.011a1.712 1.712 0 0 0-0.28-0.347 1.613 1.613 0 0 0-0.316-0.179c-0.015-0.009-0.035 0.008-0.022 0.023 0.079 0.098 0.207 0.136 0.294 0.227a3.934 3.934 0 0 0 0.286 0.314C4.54 2.071 4.566 2.035 4.552 2.011Z" fill="#000000" data-fill-palette-color="accent"></path><path d="M2.507 3.874a2.151 2.151 0 0 0-0.138-0.209 0.703 0.703 0 0 1-0.066-0.271 0.842 0.842 0 0 0-0.192-0.456 0.014 0.014 0 0 0-0.025 0.014c0.026 0.092 0.071 0.177 0.1 0.268a2.052 2.052 0 0 1 0.048 0.297 0.681 0.681 0 0 0 0.239 0.384C2.49 3.918 2.515 3.894 2.507 3.874Z" fill="#000000" data-fill-palette-color="accent"></path><path d="M2.14 2.379c-0.29 0.299-0.544 0.632-0.814 0.948-0.012 0.013 0.01 0.03 0.022 0.017 0.277-0.311 0.573-0.608 0.831-0.936C2.198 2.383 2.161 2.357 2.14 2.379Z" fill="#000000" data-fill-palette-color="accent"></path><path d="M2.369 2.464c-0.29 0.299-0.544 0.632-0.815 0.949-0.012 0.013 0.01 0.03 0.022 0.016 0.277-0.311 0.573-0.608 0.831-0.936C2.426 2.468 2.389 2.443 2.369 2.464Z" fill="#000000" data-fill-palette-color="accent"></path><path d="M1.515 3.465a0.183 0.183 0 0 1-0.133 0.038 0.124 0.124 0 0 1-0.062-0.025c-0.037-0.031-0.019-0.075-0.002-0.11 0.005-0.01-0.01-0.018-0.017-0.01-0.052 0.065-0.051 0.142 0.031 0.18a0.176 0.176 0 0 0 0.11 0.011A0.155 0.155 0 0 0 1.533 3.483C1.542 3.472 1.525 3.455 1.515 3.465Z" fill="#000000" data-fill-palette-color="accent"></path><path d="M1.137 3.192a0.057 0.057 0 0 0 0.081-0.034 0.236 0.236 0 0 0-0.046-0.175 1.16 1.16 0 0 0-0.108-0.148l-0.007-0.007a0.049 0.049 0 0 0-0.08 0.004c-0.045 0.06-0.013 0.152 0.015 0.213A0.294 0.294 0 0 0 1.137 3.192Z" fill="#000000" data-fill-palette-color="accent"></path><path d="M0.288 2.311a0.057 0.057 0 0 0-0.083 0.03 0.236 0.236 0 0 0 0.037 0.177 1.16 1.16 0 0 0 0.1 0.153l0.007 0.008a0.049 0.049 0 0 0 0.08 0c0.048-0.058 0.021-0.151-0.004-0.214A0.294 0.294 0 0 0 0.288 2.311Z" fill="#000000" data-fill-palette-color="accent"></path><path d="M1.7 2.838a0.042 0.042 0 0 0 0.065 0.004 0.175 0.175 0 0 0 0.025-0.132 0.859 0.859 0 0 0-0.025-0.133l-0.003-0.007a0.036 0.036 0 0 0-0.054-0.023c-0.049 0.026-0.057 0.098-0.058 0.148A0.218 0.218 0 0 0 1.7 2.838Z" fill="#000000" data-fill-palette-color="accent"></path><path d="M1.38 3.174a0.057 0.057 0 0 0 0.086-0.016 0.236 0.236 0 0 0-0.009-0.181 1.16 1.16 0 0 0-0.075-0.167l-0.005-0.009a0.049 0.049 0 0 0-0.079-0.012c-0.056 0.05-0.044 0.146-0.029 0.212A0.294 0.294 0 0 0 1.38 3.174Z" fill="#000000" data-fill-palette-color="accent"></path><path d="M1.554 3.03a0.057 0.057 0 0 0 0.088-0.007 0.236 0.236 0 0 0 0.01-0.18A1.16 1.16 0 0 0 1.595 2.668L1.591 2.659a0.049 0.049 0 0 0-0.077-0.021c-0.061 0.044-0.06 0.141-0.052 0.208A0.294 0.294 0 0 0 1.554 3.03Z" fill="#000000" data-fill-palette-color="accent"></path><path d="M2.199 1.933a0.052 0.052 0 0 1-0.039-0.07c0.019-0.052 0.085-0.079 0.133-0.098a1.057 1.057 0 0 1 0.161-0.044l0.009-0.001a0.044 0.044 0 0 1 0.055 0.049c-0.003 0.069-0.077 0.116-0.133 0.142A0.268 0.268 0 0 1 2.199 1.933Z" fill="#000000" data-fill-palette-color="accent"></path><path d="M2.568 1.607a0.038 0.038 0 0 1-0.02-0.056 0.16 0.16 0 0 1 0.109-0.056 0.786 0.786 0 0 1 0.123-0.014l0.007 0.001a0.033 0.033 0 0 1 0.034 0.042c-0.01 0.05-0.07 0.076-0.113 0.089A0.199 0.199 0 0 1 2.568 1.607Z" fill="#000000" data-fill-palette-color="accent"></path><path d="M2.139 2.083a0.052 0.052 0 0 1-0.028-0.075 0.215 0.215 0 0 1 0.145-0.078A1.057 1.057 0 0 1 2.422 1.911l0.009 0a0.044 0.044 0 0 1 0.047 0.056c-0.013 0.067-0.094 0.103-0.152 0.122A0.268 0.268 0 0 1 2.139 2.083Z" fill="#000000" data-fill-palette-color="accent"></path><path d="M2.033 2.283a0.052 0.052 0 0 1-0.006-0.08 0.215 0.215 0 0 1 0.161-0.034 1.057 1.057 0 0 1 0.165 0.027l0.008 0.003a0.044 0.044 0 0 1 0.03 0.066c-0.031 0.061-0.118 0.073-0.18 0.075A0.268 0.268 0 0 1 2.033 2.283Z" fill="#000000" data-fill-palette-color="accent"></path></svg></g></svg></g><g><path d="M16.152 81.899v0c-1.122-0.513-1.925-0.242-2.407 0.814v0c-0.067 0.146-0.137 0.332-0.21 0.556-0.07 0.219-0.189 0.341-0.357 0.368v0c-0.235 0.047-0.26-0.222-0.073-0.808v0c0.059-0.209 0.133-0.411 0.222-0.606v0c0.43-0.939 1.128-1.394 2.096-1.365v0c0.409 0.01 0.878 0.136 1.408 0.378 0.525 0.24 1.083 0.768 1.676 1.585v0c1.08 1.46 1.59 3.209 1.529 5.246v0c-0.015 0.679-0.163 1.323-0.441 1.934-0.279 0.61-0.723 1.17-1.333 1.68v0c-1.117 0.942-2.452 1.346-4.005 1.211v0c-0.599-0.06-1.296-0.272-2.089-0.634-0.787-0.36-1.681-1.034-2.682-2.022v0c-1.901-2.086-3.152-4.664-3.754-7.735v0c-0.658-3.288-0.496-6.005 0.486-8.153v0c0.834-1.824 2.124-2.709 3.87-2.656v0c0.763 0.009 1.589 0.218 2.48 0.625v0c0.293 0.134 0.586 0.29 0.881 0.469v0c1.343 0.806 2.77 1.967 4.281 3.485v0c0.252 0.255 0.433 0.408 0.543 0.458 0.104 0.047 0.167 0.047 0.189-0.002v0c0.055-0.071-0.053-0.286-0.324-0.646v0c-1.644-2.212-3.004-4.438-4.082-6.679v0c-0.359-0.732-0.561-1.514-0.609-2.347v0c-0.056-0.911 0.048-1.652 0.31-2.226 0.265-0.58 0.685-0.941 1.259-1.084 0.572-0.137 1.208-0.045 1.91 0.276v0c1.641 0.75 4.09 2.645 7.347 5.683v0c0.643 0.611 1.055 0.999 1.238 1.163v0c-1.465-2.263-2.984-4.96-4.554-8.089-1.565-3.127-2.223-5.567-1.975-7.32v0c0.046-0.311 0.118-0.573 0.216-0.786v0c0.282-0.616 0.772-0.875 1.472-0.776v0c0.241 0.037 0.499 0.118 0.774 0.243v0c0.83 0.379 1.746 1.189 2.75 2.43v0c2.061 2.558 3.767 4.44 5.117 5.648v0c1.782 1.619 3.055 2.603 3.818 2.951 0.763 0.349 1.43 0.566 2.003 0.65v0c1.14 0.167 1.996-0.374 2.568-1.624v0c0.031-0.067 0.089-0.203 0.175-0.407 0.086-0.204 0.174-0.3 0.265-0.288 0.09 0.012 0.139 0.1 0.144 0.265 0.003 0.171-0.028 0.327-0.091 0.467-0.061 0.134-0.121 0.24-0.179 0.317v0c-1.437 2.448-3.341 3.13-5.714 2.044v0c-0.86-0.393-1.76-1.015-2.699-1.864-0.936-0.856-1.641-1.54-2.115-2.052v0c-0.767-0.823-2.24-2.488-4.42-4.996v0c-0.824-0.908-1.504-1.484-2.041-1.73-0.537-0.245-0.91-0.139-1.119 0.318v0c-0.29 0.634-0.086 1.915 0.611 3.842v0c0.371 0.996 0.865 2.117 1.482 3.365 0.617 1.248 1.8 3.216 3.55 5.905 1.75 2.688 3.036 4.475 3.856 5.359v0c0.708 0.774 0.92 1.472 0.636 2.094v0c-0.201 0.439-0.475 0.627-0.822 0.564v0c-0.15-0.01-0.251-0.056-0.302-0.138-0.051-0.082-0.254-0.363-0.611-0.843-0.353-0.471-0.724-0.965-1.114-1.483-0.399-0.514-0.956-1.167-1.671-1.959-0.724-0.788-1.474-1.559-2.25-2.312v0c-1.937-1.83-4.053-3.435-6.35-4.817v0c-0.267-0.159-0.607-0.333-1.022-0.523-0.415-0.19-0.794-0.23-1.139-0.123-0.344 0.108-0.572 0.284-0.684 0.529v0c-0.363 0.793-0.16 1.948 0.607 3.463v0c1.016 2.036 2.08 3.887 3.192 5.553 1.115 1.675 2.083 3.01 2.904 4.005 0.827 0.998 1.832 2.172 3.013 3.524 1.179 1.358 1.807 2.08 1.885 2.167 0.081 0.081 0.178 0.192 0.291 0.332 0.113 0.14 0.222 0.264 0.328 0.372v0c0.372 0.428 0.398 0.993 0.077 1.694v0c-0.184 0.403-0.413 0.564-0.685 0.483v0c-0.049-0.022-0.103-0.058-0.162-0.107v0c-1.168-1.832-3.139-4.168-5.912-7.006v0c-3.505-3.609-6.234-5.86-8.186-6.752v0c-2.324-1.063-3.924-0.636-4.8 1.279v0c-0.566 1.238-0.684 3.069-0.354 5.491 0.324 2.42 1.131 4.673 2.419 6.76v0c0.509 0.823 1.049 1.512 1.621 2.068v0c1.064 0.995 1.962 1.661 2.694 1.995v0c2.098 0.959 3.799 0.893 5.103-0.2v0c0.467-0.376 0.816-0.818 1.048-1.324v0c0.803-1.757 0.51-3.632-0.88-5.624v0c-0.698-1.005-1.407-1.672-2.127-2.002z" fill="#000000" data-fill-palette-color="primary"></path><path d="M41.883 67.67v0c-0.507 0.599-1.028 0.954-1.561 1.065-0.528 0.115-0.969 0.023-1.322-0.276-0.358-0.303-0.676-0.748-0.953-1.335v0c-0.397-0.943-0.411-2.058-0.042-3.345v0c0.262-0.974 0.738-2.153 1.428-3.537 0.69-1.385 1.127-2.28 1.312-2.686v0c-0.444-1.22-1.483-3.106-3.118-5.66v0c0.72 1.972 1.134 3.461 1.241 4.466 0.107 1.005-0.069 1.779-0.528 2.321v0c-0.624 0.737-1.296 0.907-2.014 0.51v0c-0.14-0.022-0.296-0.128-0.469-0.318-0.163-0.191-0.284-0.324-0.361-0.399-0.078-0.074-0.174-0.231-0.289-0.468-0.115-0.238-0.2-0.407-0.256-0.507v0c-0.186-0.413-0.324-0.749-0.412-1.009v0c-0.182 0.215-0.344 0.183-0.486-0.095v0l-0.402-0.973c-0.491-1.216-0.916-2.235-1.274-3.057v0c-0.174-0.376-0.092-0.763 0.246-1.163v0l1.053-1.243c0.004 0.047 0.001 0.159-0.007 0.336v0c-0.044 0.384-0.008 0.731 0.107 1.04v0c0.428 1.207 1.116 2.844 2.063 4.912v0c0.384 0.844 0.727 1.394 1.029 1.65 0.297 0.251 0.55 0.378 0.76 0.379 0.21 0.002 0.39-0.087 0.542-0.266v0c0.217-0.256 0.251-0.847 0.103-1.772v0c-0.317-1.93-1.19-4.511-2.619-7.743v0c-0.161-0.391-0.079-0.779 0.246-1.162v0l0.937-1.106c-0.058 0.566 0.013 1.11 0.213 1.632 0.2 0.521 0.523 1.173 0.969 1.954 0.436 0.782 1.032 1.806 1.789 3.071 0.761 1.26 1.326 2.213 1.693 2.858v0c0.704-1.61 0.861-3.165 0.471-4.665v0c-0.169-0.662-0.555-1.727-1.158-3.195v0c-0.112-0.262-0.115-0.414-0.009-0.456 0.102-0.037 0.188-0.025 0.26 0.036 0.067 0.056 0.232 0.39 0.497 1.001 0.27 0.615 0.502 1.203 0.696 1.763 0.194 0.56 0.34 1.197 0.437 1.912 0.097 0.715 0.073 1.398-0.073 2.048-0.141 0.654-0.394 1.472-0.761 2.455v0c1.026 2.671 1.538 4.92 1.537 6.747v0c-0.026 1.692-0.532 3.118-1.515 4.28zM38.854 67.136v0c0.167 0.405 0.378 0.716 0.634 0.932 0.251 0.212 0.528 0.28 0.831 0.203 0.293-0.077 0.562-0.258 0.804-0.545v0c0.672-0.793 0.985-1.983 0.94-3.569-0.051-1.59-0.251-3.118-0.601-4.583v0l-0.377-1.097c-1.319 2.751-2.1 4.529-2.342 5.334v0c-0.357 1.2-0.32 2.309 0.111 3.325z" fill="#000000" data-fill-palette-color="primary"></path><path d="M76.22 21.459v0c0.54 0.865 0.733 1.863 0.578 2.996v0c-0.221 1.609-0.921 3.11-2.099 4.502v0c-0.876 1.029-1.828 1.865-2.858 2.508v0c-0.381 0.238-0.768 0.448-1.16 0.63v0c-2.566 1.184-4.91 1.92-7.031 2.209v0c-0.809 2.047-2.047 3.592-3.714 4.632v0c-1.974 1.233-3.538 1.451-4.693 0.654v0c-0.262-0.192-0.504-0.464-0.724-0.817-0.217-0.347-0.274-0.825-0.172-1.435v0c0.166-0.95 0.735-1.729 1.708-2.336v0c0.637-0.398 1.269-0.666 1.894-0.804 0.631-0.141 1.453-0.243 2.466-0.306 1.018-0.067 1.766-0.122 2.244-0.168v0c0.257-1.07 0.379-2.407 0.365-4.012-0.008-1.608-0.093-3.137-0.255-4.586-0.156-1.453-0.242-3.123-0.258-5.01-0.022-1.884 0.101-3.574 0.368-5.07v0l0.375-2.287c-1.326 0.536-2.712 1.255-4.156 2.158-1.439 0.899-2.907 2.076-4.402 3.531v0c-2.054 1.979-3.239 4.134-3.553 6.467v0c-0.198 1.405-0.036 2.525 0.486 3.361v0c0.693 1.109 1.68 1.493 2.961 1.152v0c0.449-0.13 0.818-0.286 1.108-0.467 0.284-0.178 0.584-0.44 0.898-0.785 0.317-0.34 0.546-0.792 0.685-1.354 0.145-0.565 0.198-1.057 0.158-1.475-0.04-0.418-0.109-0.707-0.209-0.866-0.099-0.159-0.072-0.287 0.081-0.382v0c0.155-0.081 0.303-0.027 0.445 0.161v0l0.016 0.025c0.524 1.207 0.459 2.418-0.197 3.635v0c-0.414 0.717-0.934 1.271-1.56 1.662v0l-1.306 0.531c-1.958 0.448-3.417-0.096-4.376-1.632v0c-0.654-1.047-0.833-2.366-0.538-3.958v0c0.44-2.6 1.975-5.005 4.603-7.217v0c1.273-1.064 2.663-2.067 4.171-3.008 1.513-0.945 3.152-1.739 4.917-2.383v0c0.199-0.631 0.421-1.105 0.665-1.424 0.244-0.318 0.392-0.494 0.443-0.525 0.057-0.036 0.095-0.051 0.113-0.047v0c0.091-0.057 0.143-0.018 0.156 0.116 0.009 0.129-0.072 0.373-0.243 0.733-0.165 0.356-0.231 0.631-0.197 0.823v0c2.396-0.761 4.356-0.933 5.881-0.518v0c0.825 0.244 1.415 0.651 1.769 1.22 0.355 0.569 0.549 1.247 0.582 2.033v0c0.029 1.034-0.328 2.051-1.071 3.053-0.743 1.002-1.6 1.838-2.573 2.509v0c1.155-0.302 2.322-0.442 3.5-0.418v0c1.667 0.035 2.903 0.698 3.709 1.989zM71.131 31.031v0c1.695-1.059 2.831-2.444 3.407-4.156v0c0.648-1.836 0.598-3.355-0.152-4.555v0c-0.778-1.246-2.026-1.775-3.744-1.588v0c-0.626 0.074-1.359 0.224-2.2 0.448-0.844 0.219-1.53 0.386-2.058 0.503-0.525 0.122-0.861 0.134-1.009 0.037v0c-0.181-0.29-0.058-0.581 0.369-0.871v0c0.29-0.181 0.745-0.434 1.366-0.758 0.62-0.324 1.142-0.622 1.564-0.895 0.417-0.269 0.835-0.739 1.254-1.411 0.413-0.669 0.685-1.373 0.817-2.112v0c0.21-1.183 0.106-2.11-0.314-2.781v0c-0.888-1.422-2.865-1.611-5.93-0.567v0c-0.109 1.61-0.087 4.85 0.069 9.72 0.149 4.873 0.042 8.266-0.323 10.177v0l-0.35 1.358c2.16-0.353 4.288-1.049 6.383-2.089v0c0.306-0.144 0.59-0.297 0.851-0.46zM62.427 34.474v0c-2.308 0.255-3.75 0.448-4.325 0.578-0.57 0.126-1.088 0.335-1.554 0.626-0.461 0.288-0.727 0.679-0.797 1.174-0.071 0.495-0.022 0.876 0.145 1.144 0.167 0.267 0.385 0.483 0.653 0.647v0c0.762 0.473 1.675 0.377 2.739-0.287v0c1.439-0.899 2.486-2.193 3.139-3.882z" fill="#000000" data-fill-palette-color="primary"></path><path d="M84.174 19.121v0c-0.022 0.659 0.097 1.34 0.357 2.045v0c0.174 0.472 0.416 0.808 0.726 1.009 0.316 0.198 0.666 0.226 1.05 0.085v0c1.529-0.564 2.385-2.509 2.566-5.837v0c0.02-0.315 0.117-0.486 0.293-0.515v0c0.076-0.007 0.127 0.025 0.152 0.094 0.023 0.063-0.003 0.573-0.079 1.53-0.078 0.951-0.216 1.749-0.415 2.395v0c-0.422 1.492-1.262 2.471-2.521 2.934v0c-0.673 0.248-1.327 0.239-1.961-0.027-0.626-0.263-1.078-0.771-1.357-1.526-0.278-0.755-0.395-1.624-0.349-2.606 0.048-0.976 0.249-1.943 0.602-2.903 0.354-0.96 0.871-1.758 1.551-2.395v0c0.324-0.305 0.662-0.523 1.014-0.653 0.352-0.13 0.717-0.15 1.093-0.06v0c0.369 0.128 0.606 0.334 0.711 0.618v0c0.371 1.007 0.123 2.196-0.744 3.566v0c-0.261 0.418-0.686 0.864-1.276 1.339-0.59 0.475-1.061 0.777-1.413 0.907zM86.92 13.541v0c-0.125-0.34-0.32-0.461-0.585-0.364v0c-0.472 0.174-0.973 1.016-1.502 2.527v0c-0.313 0.916-0.525 1.891-0.637 2.926v0c0.283-0.104 0.661-0.358 1.135-0.761 0.473-0.403 0.85-0.846 1.13-1.328v0c0.626-1.132 0.78-2.132 0.459-3z" fill="#000000" data-fill-palette-color="primary"></path><path d="M101.75 10.831c-0.24 0.387-0.517 1.203-0.83 2.448-0.315 1.238-0.468 2.146-0.457 2.722 0.018 0.575 0.067 1.032 0.147 1.372 0.08 0.34 0.25 0.479 0.511 0.417v0c0.333-0.078 0.67-0.478 1.011-1.199v0c0.51-1.057 0.943-2.381 1.299-3.974v0c0.035-0.174 0.093-0.28 0.173-0.319v0c0.131-0.086 0.215-0.051 0.252 0.106v0c0.021 0.091 0.02 0.202-0.005 0.332v0c-0.846 3.616-1.817 5.553-2.914 5.81v0c-0.503 0.118-0.968-0.028-1.394-0.437v0c-0.218-0.224-0.378-0.555-0.482-0.993-0.103-0.437-0.14-0.99-0.11-1.658v0c-0.87 2.574-1.808 3.98-2.813 4.215v0c-0.281 0.066-0.555 0.041-0.824-0.075v0c-0.608-0.243-1.017-0.808-1.225-1.696v0c-0.402-1.711-0.068-3.619 1.001-5.724v0c0.607-1.169 1.486-2.047 2.637-2.634v0c0.307-0.162 0.61-0.278 0.911-0.348v0c0.797-0.187 1.541-0.069 2.232 0.354v0c0.216 0.156 0.311 0.327 0.286 0.511-0.03 0.193-0.164 0.3-0.4 0.322v0c-0.337-0.582-0.828-0.798-1.475-0.646v0c-0.744 0.175-1.526 0.982-2.345 2.421v0c-0.463 0.846-0.855 1.803-1.176 2.871v0c-0.414 1.289-0.541 2.273-0.382 2.952 0.16 0.679 0.458 0.967 0.896 0.865v0c1.045-0.245 2.033-2.169 2.965-5.771v0c0.183-0.718 0.361-1.222 0.534-1.51 0.167-0.287 0.427-0.472 0.779-0.556v0c0.065-0.015 0.248-0.031 0.547-0.045 0.3-0.015 0.517-0.059 0.651-0.133z" fill="#000000" data-fill-palette-color="primary"></path><path d="M108.379 15.484v0c-0.073-0.761 0.165-1.717 0.715-2.869v0c-0.28 0.027-0.374-0.109-0.281-0.407v0l0.391-0.978c0.497-1.213 0.904-2.24 1.221-3.078v0c0.138-0.391 0.467-0.611 0.988-0.661v0l1.622-0.156c-0.597 0.522-1.155 1.479-1.675 2.87-0.521 1.384-0.925 2.474-1.213 3.27-0.281 0.788-0.403 1.38-0.365 1.773 0.037 0.387 0.13 0.655 0.279 0.802 0.149 0.147 0.34 0.21 0.574 0.188v0c0.334-0.032 0.771-0.431 1.31-1.197v0c0.835-1.199 1.938-3.649 3.307-7.353v0c0.164-0.393 0.494-0.613 0.988-0.66v0l1.442-0.139c-0.358 0.338-0.636 0.678-0.832 1.02-0.19 0.342-0.442 0.942-0.757 1.801v0c-0.863 2.239-1.322 3.712-1.375 4.418v0c-0.03 0.252-0.034 0.485-0.014 0.698v0c0.054 0.568 0.277 0.853 0.668 0.856v0c0.961-0.092 2.004-1.695 3.127-4.808v0c0.083-0.257 0.181-0.364 0.293-0.321 0.112 0.043 0.172 0.108 0.18 0.195 0.009 0.093-0.051 0.308-0.181 0.644-0.13 0.336-0.257 0.661-0.381 0.976-0.118 0.315-0.309 0.751-0.572 1.309-0.263 0.558-0.514 0.999-0.752 1.325v0c-0.619 0.848-1.263 1.304-1.931 1.368-0.668 0.064-1.153-0.186-1.456-0.75v0c-0.132-0.257-0.218-0.589-0.258-0.996-0.039-0.407 0.002-0.923 0.125-1.548v0c-1.084 2.402-2.176 3.655-3.278 3.761v0c-0.961 0.092-1.561-0.255-1.798-1.04v0c-0.062-0.082-0.099-0.186-0.111-0.313z" fill="#000000" data-fill-palette-color="primary"></path><path d="M123.343 13.828v0c0.038-1.489 0.819-3.958 2.344-7.408v0l-1.398-0.036c-0.087-0.002-0.143-0.051-0.168-0.145-0.024-0.101-0.015-0.202 0.028-0.301 0.049-0.093 0.118-0.138 0.205-0.136v0l1.609 0.041c0.68-1.398 1.31-2.563 1.891-3.494 0.581-0.938 1.107-1.565 1.578-1.882 0.471-0.317 0.811-0.472 1.019-0.467 0.208 0.005 0.355 0.026 0.441 0.062v0c0.404 0.205 0.598 0.616 0.582 1.233-0.016 0.617-0.239 1.359-0.671 2.227-0.432 0.868-0.855 1.672-1.269 2.413v0l1.287 0.033c0.087 0.002 0.143 0.051 0.167 0.145 0.024 0.101 0.015 0.202-0.027 0.301-0.049 0.093-0.118 0.138-0.205 0.136v0l-1.559-0.04c-1.028 1.638-2.256 3.082-3.684 4.334v0l-0.684 2.72c-0.06 0.233-0.092 0.461-0.098 0.682-0.006 0.228 0.052 0.458 0.174 0.689 0.115 0.238 0.306 0.36 0.574 0.367v0c0.308 0.008 0.653-0.091 1.034-0.296v0c0.875-0.622 1.855-1.949 2.94-3.98v0c0.078-0.159 0.168-0.254 0.269-0.285 0.095-0.031 0.151-0.006 0.17 0.074 0.018 0.081-0.012 0.208-0.091 0.38v0c-0.622 1.219-1.11 2.085-1.465 2.6v0c-1.005 1.531-2.051 2.282-3.138 2.254v0c-0.557-0.014-1.007-0.234-1.352-0.658-0.352-0.418-0.519-0.939-0.503-1.563zM127.603 5.885l1.337 0.035c1.234-2.082 1.862-3.535 1.883-4.36v0c0.009-0.355-0.047-0.535-0.167-0.538v0c-0.201-0.005-0.51 0.272-0.927 0.832-0.417 0.566-1.126 1.91-2.126 4.031zM128.583 6.494v0l-1.267-0.032c-0.227 0.497-0.741 1.675-1.54 3.533v0c0.991-0.974 1.927-2.141 2.807-3.501z" fill="#000000" data-fill-palette-color="primary"></path><path d="M139.296 6.589c-0.271 0.184-0.557 0.259-0.857 0.224-0.306-0.036-0.534-0.17-0.682-0.403-0.155-0.234-0.198-0.503-0.129-0.805v0c0.088-0.294 0.271-0.532 0.549-0.716 0.271-0.184 0.557-0.259 0.857-0.225 0.306 0.036 0.541 0.171 0.702 0.406 0.162 0.235 0.198 0.499 0.11 0.793-0.089 0.3-0.272 0.542-0.55 0.726zM135.55 16.059v0c0.34 0.04 0.716-0.086 1.127-0.375v0c0.73-0.584 1.719-1.829 2.967-3.737v0c0.158-0.252 0.294-0.317 0.408-0.195v0c0.029 0.037 0.04 0.096 0.03 0.175-0.009 0.08-0.102 0.268-0.278 0.566-0.183 0.296-0.346 0.561-0.488 0.794-0.142 0.233-0.412 0.61-0.81 1.131-0.392 0.522-0.739 0.92-1.041 1.196v0c-0.823 0.748-1.561 1.084-2.214 1.008-0.646-0.075-1.09-0.326-1.33-0.753-0.235-0.419-0.324-0.868-0.269-1.348 0.056-0.48 0.23-0.993 0.524-1.539v0l2.214-4.138c0.046-0.103 0.079-0.244 0.1-0.424 0.021-0.18-0.059-0.422-0.24-0.727v0l1.473 0.141c0.406 0.047 0.637 0.152 0.692 0.314 0.056 0.155-0.024 0.382-0.241 0.68v0l-2.709 4.74c-0.383 0.624-0.602 1.166-0.655 1.625v0c-0.06 0.513 0.187 0.802 0.74 0.866z" fill="#000000" data-fill-palette-color="primary"></path><path d="M138.658 26.299v0c-0.958-0.233-1.321-0.828-1.088-1.786v0c0.332-1.369 1.907-3.948 4.724-7.737v0c-0.123-0.403-0.158-0.715-0.104-0.936v0c0.177-0.73 0.459-1.179 0.845-1.348v0c0.298-0.148 0.529-0.203 0.692-0.163 0.163 0.04 0.268 0.075 0.316 0.107v0c3.065-3.984 5.749-7.264 8.05-9.838v0c0.465-0.55 0.899-0.931 1.303-1.144 0.397-0.214 0.85-0.26 1.358-0.136v0c0.065 0.016 0.232 0.084 0.499 0.204 0.268 0.12 0.472 0.187 0.614 0.2v0c-1 0.565-2.556 1.972-4.668 4.22-2.112 2.248-4.188 4.699-6.226 7.352v0c0.279 0.585 0.398 1.304 0.357 2.157v0l-0.005 0.361c0.033 0.008 0.059 0.014 0.078 0.019v0c0.469 0.114 1.031-0.04 1.686-0.461 0.654-0.421 1.218-0.881 1.691-1.38 0.468-0.508 0.86-0.958 1.177-1.351 0.316-0.393 0.504-0.599 0.564-0.618 0.06-0.02 0.112-0.021 0.156-0.004 0.044 0.018 0.079 0.043 0.106 0.077 0.026 0.034 0.031 0.084 0.015 0.149-0.014 0.059-0.046 0.12-0.096 0.184v0c-2.238 2.936-4.054 4.234-5.449 3.896v0c-0.047 0.279-0.148 0.737-0.303 1.376-0.153 0.632-0.538 1.536-1.155 2.711-0.617 1.176-1.413 2.169-2.39 2.982-0.984 0.81-1.899 1.113-2.747 0.907zM138.978 24.855v0c-0.123 0.508-0.045 0.797 0.235 0.864v0c0.326 0.079 0.876-0.198 1.651-0.831 0.768-0.635 1.521-1.574 2.258-2.817 0.732-1.251 1.23-2.424 1.496-3.519v0c0.021-0.085 0.042-0.173 0.064-0.264v0c-0.085-0.021-0.163-0.04-0.235-0.057v0c-0.502-0.122-0.892-0.361-1.171-0.72v0c-2.554 3.611-3.986 6.059-4.298 7.344zM144.595 17.749v0l0.156 0.038c0.13-0.762 0.067-1.413-0.189-1.951v0l-0.892 1.16c0.095 0.375 0.404 0.626 0.925 0.753z" fill="#000000" data-fill-palette-color="primary"></path><path d="M153.718 18.682v0c0.246-0.724 0.856-1.498 1.83-2.322v0c-0.267-0.091-0.297-0.253-0.089-0.487v0l0.758-0.731c0.951-0.903 1.743-1.671 2.377-2.306v0c0.286-0.3 0.677-0.365 1.172-0.197v0l1.543 0.524c-0.759 0.231-1.66 0.874-2.706 1.929-1.043 1.048-1.859 1.876-2.448 2.484-0.58 0.603-0.934 1.092-1.061 1.467-0.125 0.368-0.15 0.65-0.075 0.846 0.075 0.196 0.224 0.331 0.447 0.407v0c0.318 0.108 0.88-0.077 1.686-0.554v0c1.254-0.75 3.265-2.532 6.034-5.347v0c0.311-0.291 0.702-0.357 1.172-0.197v0l1.372 0.466c-0.465 0.161-0.858 0.357-1.178 0.588-0.313 0.234-0.79 0.678-1.429 1.332v0c-1.706 1.687-2.729 2.842-3.068 3.464v0c-0.131 0.218-0.23 0.428-0.299 0.631v0c-0.183 0.54-0.097 0.891 0.258 1.055v0c0.915 0.311 2.523-0.723 4.825-3.101v0c0.181-0.2 0.314-0.258 0.398-0.173 0.084 0.085 0.113 0.169 0.085 0.252-0.03 0.089-0.173 0.26-0.429 0.513-0.256 0.253-0.505 0.498-0.749 0.734-0.237 0.238-0.59 0.558-1.058 0.958-0.469 0.4-0.879 0.7-1.23 0.9v0c-0.913 0.519-1.687 0.67-2.322 0.455-0.635-0.216-0.975-0.643-1.021-1.282v0c-0.015-0.289 0.043-0.627 0.174-1.014 0.132-0.387 0.381-0.841 0.749-1.361v0c-1.974 1.745-3.485 2.44-4.533 2.085v0c-0.915-0.311-1.319-0.873-1.212-1.687v0c-0.023-0.1-0.014-0.21 0.027-0.331z" fill="#000000" data-fill-palette-color="primary"></path><path d="M171.298 21.517c-0.05 0.058-0.231 0.246-0.542 0.565-0.314 0.31-0.598 0.62-0.852 0.929-0.257 0.3-0.469 0.623-0.635 0.967-0.169 0.35-0.244 0.713-0.225 1.087 0.014 0.372 0.199 0.644 0.555 0.817v0c0.58 0.281 1.333 0.164 2.259-0.349 0.92-0.516 1.981-1.228 3.181-2.138v0c0.238-0.168 0.402-0.2 0.494-0.096v0c0.046 0.104 0.021 0.196-0.078 0.275-0.101 0.085-0.31 0.263-0.627 0.535-0.324 0.268-0.555 0.454-0.695 0.558-0.14 0.104-0.383 0.284-0.731 0.54-0.354 0.254-0.641 0.431-0.862 0.533-0.215 0.105-0.504 0.233-0.868 0.385-0.364 0.152-0.681 0.244-0.95 0.278v0c-0.737 0.075-1.353-0.007-1.848-0.247-0.501-0.243-0.835-0.538-1.002-0.887-0.173-0.352-0.226-0.665-0.16-0.938 0.065-0.274 0.145-0.507 0.238-0.701 0.094-0.193 0.221-0.441 0.382-0.743v0c0.297-0.49 0.64-0.938 1.031-1.345 0.385-0.41 0.602-0.644 0.653-0.701v0c1.014-1.156 2.245-2.36 3.693-3.612 1.451-1.243 2.605-2.148 3.461-2.717 0.863-0.566 1.5-0.928 1.912-1.087v0c0.83-0.314 1.511-0.342 2.042-0.085v0c0.368 0.178 0.49 0.565 0.366 1.161v0c-0.035 0.102-0.087 0.226-0.157 0.371v0c-0.266 0.549-0.794 1.147-1.584 1.794v0c-2.873 2.41-5.69 4.027-8.451 4.851zM171.861 20.84c1.227-0.442 2.549-1.102 3.966-1.982 1.426-0.882 2.542-1.68 3.348-2.392 0.813-0.709 1.297-1.224 1.452-1.544 0.158-0.326 0.179-0.517 0.064-0.573v0c-0.157-0.076-0.617 0.096-1.379 0.518-0.76 0.415-1.919 1.262-3.477 2.542-1.567 1.283-2.892 2.427-3.974 3.431z" fill="#000000" data-fill-palette-color="primary"></path><path d="M200.556 36.661v0c0.798-0.824 0.766-1.653-0.096-2.489v0c-0.101-0.098-0.219-0.198-0.354-0.3-0.139-0.107-0.2-0.198-0.182-0.275 0.008-0.076 0.065-0.115 0.169-0.116v0c0.265-0.042 0.72 0.25 1.366 0.875 0.65 0.63 0.804 1.33 0.46 2.099v0c-0.123 0.301-0.304 0.574-0.542 0.819v0c-0.532 0.549-1.346 0.979-2.442 1.291v0c-1.814 0.484-3.566 0.379-5.256-0.316v0c-0.883-0.351-1.708-0.898-2.474-1.64-0.761-0.738-1.203-1.67-1.324-2.797-0.117-1.122 0.19-2.254 0.921-3.394v0c0.195-0.278 0.43-0.559 0.706-0.844v0c0.747-0.771 1.82-1.468 3.219-2.093 1.404-0.62 3.043-0.932 4.916-0.938v0c3.562-0.032 6.565 0.725 9.008 2.271v0c0.676 0.431 1.225 0.851 1.649 1.262 0.424 0.411 0.764 0.778 1.021 1.101v0c0.688 0.89 0.945 1.873 0.772 2.948v0c-0.124 0.851-0.56 1.662-1.307 2.432v0c-0.672 0.694-1.314 1.202-1.926 1.525-0.607 0.318-1.009 0.526-1.207 0.624-0.193 0.093-0.506 0.229-0.94 0.406-0.434 0.178-0.714 0.293-0.841 0.347-0.127 0.054-0.452 0.187-0.975 0.4v0c-1.674 0.648-2.503 0.988-2.489 1.021v0l1.531-0.38c1.952-0.453 3.92-0.787 5.904-1.003v0c3.689-0.414 6.506-0.275 8.452 0.415v0c1.102 0.376 1.934 0.838 2.498 1.384 0.568 0.551 0.907 1.146 1.017 1.784 0.114 0.643-0.153 1.3-0.801 1.969-0.649 0.67-1.647 1.276-2.996 1.819-1.353 0.548-3.157 1.171-5.414 1.871-2.266 0.7-4.271 1.386-6.015 2.058-1.745 0.673-3.079 1.486-4.003 2.439v0c-0.322 0.332-0.57 0.675-0.746 1.03v0c-0.391 0.77-0.331 1.402 0.18 1.897v0c0.284 0.275 0.648 0.488 1.091 0.637 0.434 0.15 0.728 0.299 0.882 0.449 0.154 0.149 0.15 0.308-0.014 0.477-0.159 0.164-0.424 0.196-0.795 0.097-0.376-0.103-0.642-0.229-0.796-0.378v0c-2.057-1.993-2.222-3.881-0.494-5.663v0c0.635-0.655 1.39-1.208 2.265-1.658 0.875-0.45 3.4-1.455 7.573-3.015 4.174-1.56 6.685-2.662 7.533-3.306v0c0.141-0.088 0.26-0.182 0.359-0.283v0c0.523-0.539 0.469-1.115-0.163-1.727v0c-0.424-0.411-1.041-0.738-1.851-0.981v0c-2.952-0.993-6.659-1.008-11.122-0.046v0c-2.633 0.558-6.07 1.646-10.308 3.264v0c-1.547 0.594-2.358 0.905-2.433 0.935v0c-0.538 0.198-1.076 0.036-1.616-0.487v0c-0.323-0.313-0.398-0.582-0.226-0.808v0c0.023-0.053 0.067-0.098 0.133-0.137v0c1.499-0.313 3.995-1.163 7.488-2.551 3.498-1.383 6.334-2.787 8.508-4.21v0c0.718-0.481 1.304-0.955 1.756-1.423 0.453-0.467 0.778-0.932 0.974-1.395v0c0.388-0.941 0.311-1.772-0.231-2.494v0c-0.165-0.216-0.42-0.491-0.767-0.828-0.347-0.336-0.963-0.737-1.848-1.202-0.875-0.465-2.006-0.846-3.39-1.142v0c-3.113-0.672-6.043-0.463-8.792 0.629v0c-1.499 0.593-2.678 1.332-3.537 2.219v0c-0.434 0.448-0.787 0.928-1.059 1.439v0c-0.608 1.475-0.403 2.758 0.615 3.847v0c1.32 1.279 3.01 1.848 5.072 1.707v0c1.654-0.116 2.898-0.605 3.734-1.468z" fill="#000000" data-fill-palette-color="primary"></path><path d="M220.2 62.247c-0.447-0.085-1.308-0.052-2.584 0.1-1.269 0.149-2.171 0.331-2.705 0.548-0.53 0.222-0.94 0.431-1.228 0.627-0.289 0.196-0.357 0.405-0.206 0.627v0c0.192 0.283 0.686 0.455 1.48 0.515v0c1.169 0.098 2.561 0.028 4.176-0.209v0c0.175-0.029 0.295-0.014 0.36 0.047v0c0.127 0.092 0.124 0.183-0.008 0.274v0c-0.078 0.053-0.182 0.091-0.312 0.114v0c-3.679 0.504-5.835 0.29-6.469-0.642v0c-0.29-0.427-0.32-0.914-0.09-1.459v0c0.132-0.284 0.383-0.552 0.755-0.804 0.372-0.252 0.875-0.485 1.509-0.697v0c-2.715 0.109-4.363-0.264-4.943-1.119v0c-0.162-0.239-0.237-0.504-0.225-0.796v0c0.009-0.655 0.391-1.239 1.146-1.751v0c1.454-0.987 3.355-1.358 5.703-1.112v0c1.309 0.149 2.444 0.655 3.404 1.52v0c0.261 0.228 0.477 0.47 0.651 0.725v0c0.46 0.677 0.616 1.414 0.468 2.212v0c-0.069 0.257-0.194 0.407-0.376 0.45-0.191 0.041-0.339-0.045-0.443-0.259v0c0.423-0.523 0.449-1.059 0.075-1.608v0c-0.43-0.633-1.463-1.074-3.1-1.324v0c-0.955-0.13-1.989-0.153-3.101-0.071v0c-1.352 0.075-2.316 0.308-2.893 0.7-0.577 0.392-0.739 0.774-0.487 1.145v0c0.603 0.888 2.753 1.123 6.449 0.704v0c0.736-0.086 1.27-0.1 1.602-0.041 0.328 0.053 0.594 0.229 0.797 0.529v0c0.038 0.055 0.117 0.22 0.238 0.495 0.121 0.274 0.24 0.461 0.357 0.56z" fill="#000000" data-fill-palette-color="primary"></path><path d="M228.274 70.121c-0.305-0.12-0.528-0.314-0.668-0.581-0.143-0.273-0.161-0.537-0.052-0.791 0.106-0.26 0.303-0.447 0.592-0.561v0c0.292-0.093 0.593-0.076 0.901 0.05 0.305 0.12 0.528 0.314 0.669 0.581 0.143 0.273 0.164 0.543 0.061 0.809-0.103 0.266-0.3 0.446-0.593 0.538-0.298 0.096-0.601 0.081-0.91-0.045zM218.342 72.371v0c0.159 0.303 0.474 0.543 0.946 0.719v0c0.894 0.273 2.48 0.387 4.759 0.342v0c0.297-0.012 0.427 0.063 0.392 0.226v0c-0.014 0.045-0.057 0.087-0.128 0.124-0.071 0.037-0.279 0.067-0.624 0.089-0.348 0.016-0.658 0.031-0.931 0.046-0.273 0.014-0.736 0.004-1.391-0.031-0.652-0.029-1.176-0.091-1.574-0.184v0c-1.082-0.257-1.776-0.677-2.082-1.26-0.303-0.576-0.346-1.084-0.13-1.523 0.213-0.43 0.534-0.758 0.962-0.982 0.428-0.225 0.95-0.37 1.566-0.436v0l4.666-0.507c0.111-0.02 0.246-0.072 0.407-0.157 0.16-0.084 0.315-0.287 0.465-0.608v0l0.714 1.296c0.19 0.362 0.234 0.612 0.132 0.749-0.096 0.134-0.329 0.196-0.699 0.185v0l-5.441 0.437c-0.731 0.036-1.302 0.161-1.711 0.376v0c-0.457 0.24-0.556 0.607-0.298 1.099z" fill="#000000" data-fill-palette-color="primary"></path><path d="M226.932 79.927c-0.076 0.009-0.336 0.027-0.781 0.053-0.441 0.018-0.859 0.056-1.256 0.115-0.392 0.049-0.766 0.145-1.12 0.287-0.361 0.145-0.66 0.363-0.898 0.654-0.24 0.284-0.286 0.61-0.138 0.977v0c0.24 0.597 0.876 1.018 1.906 1.262 1.028 0.237 2.292 0.423 3.792 0.557v0c0.289 0.036 0.432 0.123 0.43 0.261v0c-0.036 0.108-0.117 0.159-0.242 0.152-0.132-0.005-0.407-0.014-0.824-0.027-0.42-0.019-0.716-0.037-0.89-0.054-0.173-0.017-0.475-0.048-0.904-0.092-0.432-0.05-0.764-0.112-0.996-0.185-0.229-0.067-0.53-0.167-0.901-0.299-0.371-0.133-0.668-0.277-0.891-0.434v0c-0.596-0.44-0.997-0.915-1.202-1.425-0.208-0.517-0.256-0.96-0.144-1.33 0.109-0.376 0.28-0.644 0.512-0.803 0.233-0.159 0.449-0.278 0.648-0.358 0.199-0.08 0.46-0.178 0.782-0.292v0c0.549-0.163 1.105-0.264 1.668-0.302 0.56-0.045 0.879-0.071 0.955-0.08v0c1.528-0.173 3.249-0.236 5.162-0.189 1.91 0.056 3.373 0.162 4.389 0.317 1.019 0.161 1.734 0.322 2.146 0.482v0c0.825 0.326 1.348 0.763 1.568 1.311v0c0.153 0.38-0.017 0.748-0.51 1.105v0c-0.095 0.052-0.217 0.109-0.366 0.169v0c-0.566 0.228-1.359 0.315-2.378 0.262v0c-3.747-0.149-6.919-0.847-9.517-2.094zM227.804 79.804c1.205 0.499 2.628 0.899 4.268 1.201 1.648 0.306 3.011 0.467 4.086 0.482 1.079 0.022 1.783-0.034 2.113-0.166 0.336-0.135 0.48-0.262 0.433-0.38v0c-0.065-0.162-0.521-0.343-1.369-0.545-0.841-0.204-2.269-0.357-4.283-0.458-2.023-0.105-3.772-0.15-5.248-0.134z" fill="#000000" data-fill-palette-color="primary"></path><path d="M226.429 92.608v0c0.024 0.23 0.048 0.391 0.075 0.481v0c0.195 0.684 0.794 1.246 1.797 1.686v0c0.548 0.235 1.857 0.559 3.928 0.974v0c0.095 0.015 0.154 0.064 0.178 0.148v0c0.063 0.149 0.027 0.243-0.108 0.282v0c-0.039 0.011-0.15 0.001-0.333-0.031-0.183-0.032-0.369-0.059-0.557-0.082-0.18-0.019-0.446-0.061-0.8-0.128-0.354-0.067-0.641-0.132-0.861-0.195-0.225-0.055-0.497-0.13-0.817-0.227-0.325-0.089-0.59-0.198-0.795-0.328v0l-0.725-0.38c-0.373-0.208-0.678-0.494-0.914-0.859v0c-0.386-0.573-0.579-1.188-0.577-1.844v0c-0.286-0.344-0.473-0.671-0.562-0.981v0c-0.347-1.219-0.073-2.096 0.821-2.629v0c0.205-0.114 0.468-0.217 0.791-0.309 0.316-0.09 0.65-0.07 1.001 0.061 0.357 0.128 0.577 0.313 0.66 0.555v0c1.921 0.402 3.64 0.722 5.158 0.959v0c1.659 0.267 2.619 0.859 2.88 1.775v0c0.068 0.239 0.077 0.491 0.026 0.756-0.044 0.263-0.141 0.385-0.293 0.365-0.16-0.024-0.222-0.143-0.185-0.355 0.031-0.211 0.026-0.387-0.014-0.529-0.039-0.135-0.098-0.247-0.18-0.336v0c-0.444-0.508-1.122-0.633-2.031-0.374v0c-0.484 0.138-0.86 0.322-1.13 0.551-0.271 0.224-0.563 0.474-0.874 0.751v0c-0.778 0.647-1.451 1.051-2.019 1.213v0c-0.568 0.162-1.18 0.141-1.838-0.063-0.651-0.205-1.218-0.508-1.702-0.907zM226.353 91.678v0c0.802 0.588 1.858 0.695 3.167 0.323v0c0.529-0.151 1.241-0.416 2.138-0.797 0.894-0.387 1.506-0.627 1.834-0.721 0.329-0.094 0.554-0.147 0.676-0.161v0c-2.986-0.566-4.806-0.923-5.462-1.071v0c0.103 0.361-0.104 0.615-0.62 0.762v0c-1.013 0.288-1.591 0.843-1.733 1.665zM226.499 89.544v0c-0.103 0.029-0.21 0.07-0.321 0.123v0c-0.426 0.268-0.568 0.65-0.427 1.147v0c0.059 0.206 0.141 0.371 0.246 0.495v0c0.218-0.753 0.765-1.281 1.641-1.586v0c-0.398-0.222-0.777-0.281-1.139-0.179z" fill="#000000" data-fill-palette-color="primary"></path><path d="M22.879 160.224v0c0.991-0.428 1.285-1.11 0.882-2.046v0c-0.056-0.129-0.134-0.285-0.236-0.468-0.104-0.174-0.114-0.323-0.028-0.448v0c0.112-0.18 0.301-0.039 0.566 0.424v0c0.105 0.159 0.195 0.325 0.27 0.497v0c0.362 0.838 0.247 1.563-0.344 2.176v0c-0.246 0.26-0.603 0.49-1.07 0.692-0.468 0.202-1.141 0.251-2.019 0.148v0c-1.584-0.149-3.019-0.841-4.304-2.076v0c-0.434-0.412-0.767-0.889-1.001-1.431-0.231-0.536-0.336-1.152-0.316-1.847v0c0.045-1.283 0.57-2.387 1.574-3.31v0c0.387-0.357 0.931-0.687 1.633-0.99 0.696-0.3 1.66-0.487 2.893-0.558v0c2.467-0.006 4.878 0.696 7.233 2.105v0c2.52 1.506 4.19 3.207 5.008 5.104v0c0.694 1.607 0.512 2.964-0.544 4.07v0c-0.454 0.488-1.075 0.903-1.864 1.243v0c-0.259 0.112-0.533 0.212-0.823 0.301v0c-1.311 0.398-2.901 0.642-4.769 0.732v0c-0.322 0.015-0.53 0.042-0.622 0.083-0.092 0.04-0.129 0.081-0.11 0.124v0c0.013 0.082 0.217 0.14 0.612 0.174v0c2.4 0.228 4.646 0.65 6.738 1.267v0c0.686 0.201 1.312 0.526 1.879 0.975v0c0.624 0.498 1.046 1.002 1.267 1.513 0.221 0.511 0.207 0.996-0.042 1.454-0.242 0.455-0.674 0.817-1.295 1.085v0c-1.453 0.627-4.123 1.104-8.008 1.429v0c-0.776 0.065-1.268 0.109-1.477 0.134v0c2.331 0.374 4.973 0.969 7.927 1.783 2.953 0.815 4.924 1.819 5.914 3.014v0c0.18 0.214 0.31 0.414 0.39 0.599v0c0.237 0.548 0.114 1.017-0.367 1.408v0c-0.158 0.141-0.36 0.265-0.607 0.372v0c-0.733 0.316-1.8 0.434-3.202 0.351v0c-2.866-0.158-5.088-0.152-6.666 0.018v0c-2.097 0.204-3.483 0.452-4.161 0.744-0.677 0.292-1.21 0.599-1.597 0.92v0c-0.781 0.644-0.933 1.52-0.454 2.629v0c0.024 0.055 0.078 0.171 0.16 0.347 0.086 0.182 0.099 0.297 0.04 0.344-0.063 0.057-0.149 0.035-0.258-0.064-0.115-0.097-0.199-0.206-0.252-0.329-0.053-0.123-0.085-0.223-0.096-0.299v0c-0.753-2.371-0.08-4.009 2.02-4.915v0c0.764-0.33 1.698-0.551 2.805-0.663 1.1-0.109 1.955-0.168 2.565-0.176v0c0.986-0.017 2.932 0.006 5.837 0.067v0c1.079-0.005 1.855-0.111 2.329-0.316 0.474-0.205 0.625-0.507 0.452-0.907v0c-0.242-0.56-1.194-1.183-2.856-1.869v0c-0.864-0.343-1.886-0.68-3.066-1.01-1.171-0.327-3.145-0.71-5.92-1.148-2.769-0.441-4.682-0.657-5.737-0.647v0c-0.919 0.002-1.498-0.27-1.734-0.819v0c-0.167-0.388-0.13-0.674 0.111-0.859v0c0.098-0.094 0.188-0.132 0.268-0.115 0.086 0.014 0.385 0.046 0.896 0.095 0.517 0.047 1.06 0.094 1.628 0.141 0.568 0.047 1.32 0.07 2.254 0.068 0.941-0.004 1.882-0.041 2.823-0.112v0c2.324-0.185 4.61-0.617 6.86-1.295v0c0.26-0.076 0.571-0.192 0.934-0.349 0.369-0.16 0.619-0.384 0.75-0.674 0.133-0.284 0.153-0.534 0.061-0.749v0c-0.306-0.708-1.175-1.257-2.607-1.648v0c-1.917-0.531-3.746-0.926-5.486-1.182-1.74-0.257-3.177-0.411-4.31-0.463-1.13-0.045-2.483-0.082-4.058-0.111-1.57-0.031-2.405-0.047-2.508-0.046-0.102 0-0.231-0.002-0.387-0.009-0.159-0.012-0.306-0.014-0.441-0.006v0c-0.499-0.004-0.881-0.314-1.147-0.93v0c-0.157-0.363-0.124-0.608 0.1-0.734v0c0.043-0.019 0.095-0.034 0.156-0.045v0c1.875 0.316 4.551 0.406 8.029 0.271v0c4.395-0.159 7.458-0.611 9.189-1.358v0c2.057-0.888 2.718-2.182 1.984-3.882v0c-0.471-1.09-1.591-2.239-3.362-3.447-1.765-1.211-3.704-2.006-5.819-2.386v0c-0.833-0.152-1.597-0.205-2.294-0.161v0c-1.271 0.103-2.229 0.294-2.876 0.573v0c-1.854 0.8-2.809 1.947-2.865 3.44v0c-0.029 0.524 0.052 1.008 0.243 1.451v0c0.673 1.558 2.067 2.469 4.181 2.732v0c1.062 0.141 1.91 0.074 2.544-0.2z" fill="#000000" data-fill-palette-color="primary"></path><path d="M20.521 193.011v0c-0.423-0.538-0.637-1.043-0.643-1.517-0.006-0.474 0.152-0.837 0.474-1.089 0.322-0.253 0.758-0.447 1.309-0.582v0c0.876-0.177 1.834 0.004 2.873 0.544v0c0.789 0.395 1.716 1.01 2.782 1.844 1.07 0.84 1.766 1.372 2.087 1.596v0c1.123-0.167 2.924-0.726 5.402-1.676v0c-1.819 0.27-3.17 0.364-4.053 0.282-0.883-0.082-1.518-0.368-1.904-0.858v0c-0.527-0.67-0.557-1.277-0.09-1.823v0c0.052-0.118 0.173-0.23 0.363-0.336 0.191-0.116 0.327-0.197 0.409-0.245 0.078-0.053 0.23-0.109 0.457-0.168 0.221-0.055 0.377-0.101 0.467-0.138v0c0.393-0.087 0.707-0.142 0.945-0.166v0c-0.158-0.2-0.101-0.334 0.17-0.403v0l0.901-0.171c1.129-0.214 2.078-0.401 2.848-0.563v0c0.354-0.082 0.672 0.056 0.953 0.415v0l0.883 1.123c-0.042-0.01-0.137-0.033-0.285-0.07v0c-0.322-0.105-0.626-0.135-0.914-0.088v0c-1.108 0.154-2.632 0.457-4.572 0.908v0c-0.796 0.182-1.328 0.379-1.597 0.591-0.274 0.216-0.429 0.414-0.465 0.596-0.04 0.177 0.004 0.347 0.132 0.51v0c0.182 0.232 0.685 0.361 1.509 0.388v0c1.711 0.071 4.077-0.225 7.099-0.886v0c0.366-0.066 0.684 0.072 0.953 0.415v0l0.784 0.996c-0.474-0.147-0.953-0.181-1.435-0.099-0.483 0.081-1.097 0.244-1.843 0.489-0.75 0.24-1.733 0.574-2.95 1.002-1.217 0.428-2.133 0.744-2.749 0.947v0c1.255 0.89 2.563 1.3 3.923 1.228v0c0.596-0.034 1.579-0.179 2.946-0.436v0c0.24-0.052 0.369-0.03 0.386 0.067 0.017 0.098-0.006 0.171-0.069 0.221-0.063 0.05-0.381 0.134-0.954 0.252-0.569 0.123-1.113 0.218-1.632 0.285-0.514 0.063-1.086 0.073-1.716 0.031-0.63-0.042-1.213-0.181-1.749-0.416-0.535-0.236-1.195-0.596-1.977-1.082v0c-2.466 0.412-4.485 0.456-6.056 0.129v0c-1.443-0.316-2.577-0.998-3.402-2.047zM21.508 190.507v0c-0.377 0.074-0.678 0.201-0.905 0.379-0.232 0.182-0.34 0.408-0.325 0.678 0.016 0.269 0.125 0.533 0.328 0.791v0c0.56 0.712 1.525 1.185 2.897 1.421 1.376 0.241 2.72 0.339 4.035 0.295v0l1.011-0.129c-2.133-1.616-3.523-2.597-4.17-2.942v0c-0.965-0.521-1.922-0.686-2.871-0.493z" fill="#000000" data-fill-palette-color="primary"></path><path d="M70.999 222.786v0c-0.5 0.739-1.23 1.245-2.192 1.518v0c-1.366 0.404-2.815 0.38-4.347-0.073v0c-1.136-0.331-2.144-0.793-3.021-1.387v0c-0.328-0.222-0.634-0.457-0.92-0.706v0c-1.863-1.64-3.286-3.254-4.269-4.841v0c-1.922 0.077-3.597-0.367-5.025-1.333v0c-1.689-1.142-2.418-2.315-2.188-3.519v0c0.056-0.286 0.183-0.576 0.383-0.871 0.203-0.3 0.569-0.518 1.098-0.654v0c0.816-0.201 1.641-0.02 2.474 0.543v0c0.545 0.368 0.984 0.778 1.318 1.231 0.339 0.456 0.713 1.077 1.121 1.863 0.414 0.79 0.723 1.367 0.929 1.733v0c0.952-0.174 2.068-0.549 3.348-1.125 1.278-0.585 2.471-1.2 3.578-1.844 1.104-0.638 2.408-1.299 3.914-1.981 1.504-0.692 2.901-1.196 4.192-1.514v0l1.966-0.517c-0.902-0.869-1.97-1.72-3.204-2.555-1.234-0.834-2.698-1.589-4.395-2.266v0c-2.312-0.939-4.459-1.123-6.44-0.552v0c-1.198 0.348-2.038 0.877-2.519 1.588v0c-0.639 0.945-0.594 1.873 0.133 2.786v0c0.262 0.307 0.518 0.545 0.769 0.714 0.245 0.165 0.561 0.314 0.948 0.447 0.382 0.129 0.826 0.149 1.331 0.062 0.505-0.088 0.916-0.223 1.233-0.406 0.323-0.178 0.53-0.334 0.62-0.467 0.094-0.139 0.205-0.165 0.333-0.079v0c0.122 0.107 0.132 0.247 0.03 0.422v0l-0.011 0.016c-0.787 0.853-1.781 1.233-2.982 1.142v0c-0.725-0.077-1.354-0.296-1.888-0.657v0l-0.89-0.857c-1.055-1.41-1.139-2.77-0.253-4.081v0c0.609-0.9 1.603-1.515 2.984-1.845v0c2.238-0.568 4.706-0.195 7.404 1.119v0c1.307 0.641 2.609 1.399 3.904 2.275 1.289 0.872 2.505 1.9 3.647 3.084v0c0.577-0.063 1.038-0.056 1.381 0.023 0.34 0.084 0.532 0.141 0.576 0.171 0.044 0.03 0.071 0.056 0.081 0.079v0c0.078 0.053 0.064 0.104-0.043 0.153-0.101 0.053-0.323 0.077-0.667 0.071-0.344-0.006-0.586 0.041-0.727 0.141v0c1.457 1.641 2.289 3.147 2.497 4.517v0c0.101 0.749-0.013 1.367-0.344 1.856-0.331 0.489-0.803 0.882-1.417 1.18v0c-0.817 0.395-1.761 0.473-2.831 0.235-1.066-0.243-2.04-0.634-2.923-1.174v0c0.657 0.825 1.183 1.711 1.579 2.659v0c0.564 1.345 0.473 2.57-0.275 3.676zM61.535 222.108v0c1.45 0.98 2.964 1.4 4.541 1.26v0c1.698-0.14 2.892-0.721 3.583-1.743v0c0.721-1.067 0.702-2.254-0.058-3.561v0c-0.285-0.476-0.664-1.012-1.137-1.607-0.478-0.598-0.86-1.087-1.145-1.466-0.277-0.381-0.403-0.649-0.38-0.804v0c0.165-0.245 0.441-0.245 0.826 0v0c0.25 0.169 0.615 0.444 1.094 0.825 0.479 0.381 0.902 0.69 1.266 0.929 0.374 0.237 0.902 0.403 1.582 0.498 0.684 0.09 1.342 0.057 1.974-0.099v0c1.029-0.252 1.736-0.664 2.123-1.236v0c0.823-1.217 0.27-2.866-1.659-4.947v0c-1.326 0.488-3.911 1.659-7.756 3.513-3.844 1.854-6.596 2.973-8.256 3.357v0l-1.221 0.207c1.058 1.597 2.373 3.053 3.946 4.368v0c0.229 0.188 0.455 0.356 0.677 0.506zM55.687 216.37v0c-1.031-1.757-1.699-2.841-2.005-3.25-0.302-0.415-0.654-0.758-1.054-1.028-0.395-0.267-0.802-0.34-1.224-0.22-0.421 0.12-0.709 0.294-0.862 0.521-0.154 0.228-0.25 0.483-0.287 0.766v0c-0.111 0.775 0.289 1.471 1.2 2.087v0c1.234 0.834 2.644 1.209 4.232 1.124z" fill="#000000" data-fill-palette-color="primary"></path><path d="M79.156 227.738v0c-0.411 0.41-0.743 0.918-0.996 1.524v0c-0.168 0.402-0.213 0.762-0.135 1.078 0.087 0.313 0.295 0.538 0.623 0.675v0c1.318 0.551 3.029-0.185 5.132-2.207v0c0.195-0.188 0.358-0.239 0.49-0.155v0c0.054 0.044 0.07 0.095 0.046 0.15-0.023 0.056-0.346 0.368-0.969 0.937-0.614 0.565-1.179 0.994-1.694 1.287v0c-1.158 0.701-2.279 0.825-3.362 0.373v0c-0.582-0.243-0.996-0.634-1.243-1.174-0.251-0.548-0.24-1.147 0.031-1.797 0.272-0.65 0.718-1.274 1.339-1.872 0.615-0.601 1.32-1.106 2.116-1.515 0.8-0.4 1.607-0.601 2.421-0.602v0c0.387-0.005 0.736 0.057 1.046 0.186 0.303 0.127 0.549 0.331 0.736 0.613v0c0.159 0.299 0.186 0.572 0.083 0.82v0c-0.362 0.866-1.23 1.482-2.604 1.845v0c-0.416 0.109-0.957 0.142-1.621 0.097-0.656-0.049-1.135-0.136-1.439-0.263zM84.243 225.796v0c0.122-0.291 0.068-0.484-0.162-0.58v0c-0.408-0.171-1.232 0.07-2.472 0.723v0c-0.742 0.402-1.46 0.902-2.153 1.499v0c0.248 0.103 0.643 0.167 1.186 0.19 0.543 0.023 1.048-0.038 1.516-0.184v0c1.077-0.35 1.771-0.899 2.085-1.648z" fill="#000000" data-fill-palette-color="primary"></path><path d="M97.955 231.098c-0.347 0.197-0.901 0.705-1.663 1.524-0.764 0.826-1.259 1.462-1.487 1.907-0.229 0.452-0.384 0.823-0.464 1.114-0.082 0.297-0.01 0.477 0.217 0.54v0c0.284 0.079 0.71-0.089 1.276-0.504v0c0.833-0.598 1.724-1.431 2.673-2.498v0c0.096-0.12 0.185-0.179 0.268-0.176v0c0.129-0.013 0.175 0.048 0.137 0.184v0c-0.021 0.078-0.069 0.162-0.143 0.252v0c-2.166 2.429-3.725 3.512-4.675 3.25v0c-0.433-0.12-0.73-0.431-0.89-0.934v0c-0.073-0.264-0.058-0.583 0.045-0.959 0.105-0.381 0.31-0.822 0.616-1.322v0c-1.748 1.619-3.059 2.308-3.932 2.067v0c-0.246-0.068-0.444-0.206-0.595-0.415v0c-0.365-0.442-0.442-1.047-0.229-1.817v0c0.409-1.481 1.464-2.807 3.165-3.98v0c0.956-0.641 2-0.944 3.132-0.91v0c0.306 0.001 0.588 0.037 0.847 0.109v0c0.692 0.191 1.213 0.596 1.564 1.215v0c0.102 0.209 0.104 0.38 0.005 0.512-0.099 0.133-0.246 0.158-0.439 0.077v0c-0.012-0.588-0.299-0.959-0.862-1.114v0c-0.647-0.178-1.586 0.112-2.818 0.871v0c-0.711 0.458-1.415 1.029-2.112 1.713v0c-0.86 0.82-1.371 1.525-1.533 2.114-0.162 0.588-0.053 0.935 0.329 1.04v0c0.905 0.25 2.472-0.814 4.701-3.19v0c0.444-0.476 0.792-0.79 1.043-0.944 0.249-0.147 0.526-0.178 0.83-0.095v0c0.058 0.016 0.207 0.082 0.446 0.197 0.233 0.113 0.416 0.17 0.548 0.172z" fill="#000000" data-fill-palette-color="primary"></path><path d="M104.21 237.502v0c0.089-0.672 0.485-1.441 1.189-2.309v0c-0.253-0.033-0.306-0.169-0.16-0.406v0l0.526-0.753c0.659-0.941 1.208-1.738 1.646-2.39v0c0.196-0.306 0.52-0.428 0.973-0.368v0l1.416 0.187c-0.611 0.325-1.276 1.029-1.995 2.111-0.718 1.082-1.278 1.935-1.678 2.558-0.4 0.617-0.622 1.095-0.667 1.434-0.046 0.346-0.018 0.596 0.083 0.752 0.095 0.155 0.245 0.246 0.451 0.273v0c0.293 0.039 0.743-0.22 1.351-0.775v0c0.952-0.855 2.377-2.726 4.276-5.614v0c0.216-0.303 0.54-0.426 0.972-0.369v0l1.267 0.168c-0.38 0.214-0.685 0.447-0.915 0.701-0.23 0.254-0.565 0.717-1.006 1.389v0c-1.178 1.739-1.86 2.903-2.047 3.494v0c-0.076 0.213-0.126 0.413-0.15 0.599v0c-0.066 0.499 0.069 0.784 0.404 0.856v0c0.838 0.111 2.044-1.049 3.618-3.479v0c0.121-0.2 0.225-0.271 0.312-0.213 0.087 0.059 0.126 0.125 0.116 0.198-0.011 0.08-0.104 0.25-0.281 0.511-0.177 0.261-0.349 0.515-0.517 0.764-0.167 0.242-0.418 0.574-0.751 0.997-0.333 0.423-0.634 0.752-0.903 0.986v0c-0.696 0.605-1.333 0.869-1.911 0.792-0.585-0.078-0.954-0.387-1.105-0.927v0c-0.062-0.245-0.07-0.547-0.022-0.907 0.048-0.359 0.186-0.791 0.415-1.294v0c-1.4 1.838-2.579 2.693-3.537 2.566v0c-0.844-0.112-1.29-0.526-1.337-1.243v0c-0.036-0.086-0.047-0.182-0.033-0.289z" fill="#000000" data-fill-palette-color="primary"></path><path d="M120.21 238.574v0c0.008-1.301 0.649-3.474 1.923-6.518v0l-1.228-0.008c-0.08-0.001-0.131-0.044-0.15-0.131-0.026-0.087-0.019-0.175 0.022-0.262 0.041-0.08 0.101-0.12 0.182-0.119v0l1.408 0.009c0.571-1.237 1.101-2.27 1.589-3.099 0.495-0.829 0.948-1.386 1.359-1.672 0.404-0.286 0.697-0.428 0.878-0.427 0.181 0.001 0.312 0.019 0.392 0.053v0c0.354 0.17 0.53 0.527 0.527 1.07-0.003 0.543-0.185 1.196-0.546 1.958-0.367 0.762-0.724 1.474-1.07 2.136v0l1.127 0.008c0.074 0 0.124 0.041 0.15 0.121 0.02 0.087 0.009 0.174-0.032 0.262-0.034 0.087-0.091 0.13-0.171 0.129v0l-1.359-0.008c-0.874 1.45-1.926 2.735-3.153 3.853v0l-0.559 2.391c-0.048 0.208-0.073 0.409-0.074 0.604-0.001 0.195 0.054 0.396 0.167 0.604 0.106 0.202 0.276 0.304 0.511 0.306v0c0.268 0.002 0.567-0.09 0.898-0.277v0c0.755-0.559 1.591-1.737 2.507-3.535v0c0.068-0.14 0.142-0.224 0.223-0.25 0.087-0.033 0.141-0.016 0.161 0.051 0.013 0.074-0.011 0.188-0.073 0.342v0c-0.523 1.077-0.937 1.842-1.242 2.296v0c-0.854 1.356-1.757 2.031-2.709 2.025v0c-0.49-0.003-0.891-0.183-1.204-0.541-0.306-0.364-0.458-0.821-0.454-1.371zM123.796 231.554l1.177 0.007c1.045-1.845 1.569-3.129 1.574-3.854v0c0.002-0.309-0.051-0.463-0.158-0.463v0c-0.174-0.001-0.438 0.249-0.79 0.749-0.359 0.494-0.96 1.681-1.803 3.561zM124.668 232.072v0l-1.107-0.007c-0.191 0.435-0.62 1.475-1.287 3.121v0c0.851-0.873 1.649-1.911 2.394-3.114z" fill="#000000" data-fill-palette-color="primary"></path><path d="M135.342 230.722c-0.203 0.214-0.434 0.333-0.694 0.357-0.267 0.025-0.486-0.053-0.658-0.232-0.178-0.172-0.262-0.39-0.252-0.654v0c0.022-0.271 0.135-0.511 0.337-0.718 0.196-0.207 0.428-0.322 0.696-0.347 0.267-0.025 0.49 0.049 0.667 0.221 0.184 0.172 0.265 0.393 0.243 0.665-0.023 0.265-0.136 0.501-0.339 0.708zM133.841 239.53v0c0.301-0.028 0.601-0.207 0.9-0.538v0c0.521-0.627 1.144-1.87 1.869-3.729v0c0.092-0.244 0.196-0.325 0.311-0.241v0c0.036 0.024 0.057 0.072 0.064 0.146 0.006 0.067-0.042 0.243-0.143 0.528-0.102 0.286-0.192 0.543-0.272 0.773-0.08 0.223-0.242 0.595-0.484 1.116-0.248 0.521-0.477 0.923-0.687 1.205v0c-0.567 0.793-1.137 1.216-1.711 1.269-0.568 0.052-0.991-0.08-1.27-0.398-0.286-0.324-0.448-0.696-0.487-1.117-0.039-0.421 0.022-0.891 0.183-1.412v0l1.142-3.944c0.025-0.097 0.03-0.225 0.015-0.386-0.014-0.154-0.126-0.345-0.336-0.575v0l1.28-0.148c0.361-0.033 0.577 0.014 0.649 0.142 0.079 0.127 0.051 0.339-0.083 0.634v0l-1.459 4.55c-0.214 0.599-0.303 1.102-0.265 1.51v0c0.042 0.454 0.303 0.659 0.784 0.615z" fill="#000000" data-fill-palette-color="primary"></path><path d="M143.624 247.15v0c-0.838 0.186-1.351-0.144-1.538-0.989v0c-0.267-1.205-0.027-3.841 0.72-7.909v0c-0.25-0.261-0.398-0.492-0.442-0.696v0c-0.142-0.642-0.09-1.103 0.157-1.384v0c0.169-0.23 0.329-0.361 0.479-0.395 0.144-0.032 0.241-0.043 0.291-0.034v0c0.871-4.315 1.716-7.931 2.533-10.846v0c0.153-0.611 0.345-1.076 0.577-1.395 0.23-0.326 0.568-0.538 1.013-0.637v0c0.059-0.013 0.218-0.024 0.477-0.033 0.252-0.008 0.439-0.032 0.561-0.073v0c-0.572 0.828-1.255 2.535-2.049 5.122-0.789 2.579-1.476 5.305-2.063 8.176v0c0.449 0.354 0.823 0.876 1.12 1.566v0l0.134 0.279c0.033-0.007 0.056-0.012 0.069-0.015v0c0.413-0.091 0.794-0.43 1.145-1.016 0.352-0.58 0.619-1.157 0.801-1.734 0.173-0.581 0.309-1.085 0.407-1.512 0.096-0.434 0.164-0.668 0.204-0.705 0.039-0.043 0.078-0.065 0.119-0.068 0.041-0.002 0.08 0.006 0.119 0.025 0.031 0.014 0.052 0.047 0.063 0.1 0.013 0.059 0.013 0.121 0 0.185v0c-0.63 3.169-1.558 4.89-2.782 5.162v0c0.068 0.246 0.164 0.647 0.287 1.203 0.123 0.557 0.169 1.416 0.138 2.577-0.03 1.168-0.272 2.259-0.727 3.274-0.455 1.015-1.06 1.605-1.813 1.772zM143.323 245.887v0c0.099 0.445 0.269 0.641 0.512 0.587v0c0.295-0.065 0.622-0.495 0.982-1.289 0.36-0.794 0.589-1.824 0.686-3.089 0.098-1.265 0.04-2.379-0.174-3.342v0c-0.017-0.079-0.034-0.154-0.05-0.226v0c-0.079 0.017-0.147 0.033-0.206 0.046v0c-0.445 0.099-0.849 0.058-1.213-0.123v0c-0.609 3.824-0.788 6.303-0.537 7.436zM144.995 238.128v0l0.137-0.031c-0.191-0.645-0.491-1.131-0.901-1.459v0l-0.246 1.26c0.214 0.255 0.551 0.331 1.009 0.23z" fill="#000000" data-fill-palette-color="primary"></path><path d="M155.198 234.725v0c-0.21-0.644-0.186-1.509 0.074-2.595v0c-0.242 0.079-0.349-0.02-0.32-0.298v0l0.149-0.906c0.187-1.134 0.338-2.089 0.451-2.867v0c0.045-0.36 0.284-0.611 0.717-0.753v0l1.358-0.443c-0.411 0.557-0.706 1.479-0.885 2.765-0.18 1.286-0.316 2.297-0.408 3.033-0.094 0.729-0.087 1.256 0.019 1.582 0.108 0.332 0.242 0.546 0.4 0.642 0.152 0.099 0.327 0.116 0.525 0.051v0c0.281-0.092 0.575-0.519 0.883-1.283v0c0.489-1.183 0.965-3.486 1.427-6.912v0c0.064-0.367 0.303-0.617 0.717-0.752v0l1.215-0.397c-0.25 0.357-0.424 0.699-0.522 1.028-0.098 0.328-0.2 0.891-0.306 1.687v0c-0.31 2.077-0.421 3.422-0.334 4.036v0c0.024 0.225 0.065 0.427 0.124 0.605v0c0.156 0.478 0.401 0.677 0.734 0.596v0c0.803-0.262 1.389-1.829 1.757-4.701v0c0.023-0.233 0.086-0.342 0.19-0.326 0.104 0.015 0.167 0.058 0.19 0.128 0.025 0.077 0.014 0.271-0.032 0.582-0.046 0.312-0.092 0.616-0.137 0.913-0.046 0.29-0.128 0.698-0.246 1.223-0.118 0.525-0.247 0.952-0.386 1.28v0c-0.366 0.846-0.826 1.36-1.381 1.541-0.561 0.183-1.027 0.064-1.398-0.359v0c-0.162-0.194-0.299-0.463-0.412-0.808-0.112-0.344-0.174-0.793-0.185-1.347v0c-0.468 2.262-1.161 3.544-2.08 3.844v0c-0.81 0.264-1.391 0.084-1.743-0.543v0c-0.07-0.062-0.121-0.144-0.155-0.246z" fill="#000000" data-fill-palette-color="primary"></path><path d="M170.654 225.562c0.011 0.069 0.039 0.293 0.085 0.672 0.043 0.388 0.098 0.755 0.166 1.102 0.065 0.34 0.169 0.662 0.313 0.965 0.144 0.303 0.35 0.55 0.619 0.742 0.266 0.201 0.553 0.228 0.863 0.081v0c0.509-0.241 0.842-0.823 0.999-1.744 0.154-0.912 0.249-2.026 0.285-3.342v0c0.02-0.255 0.089-0.384 0.207-0.387v0c0.101 0.026 0.153 0.095 0.153 0.205 0.001 0.111 0.003 0.351 0.007 0.721 0.01 0.366 0.014 0.624 0.011 0.774-0.009 0.153-0.024 0.42-0.043 0.8-0.02 0.381-0.052 0.674-0.095 0.88-0.049 0.209-0.122 0.478-0.22 0.806-0.094 0.334-0.206 0.599-0.336 0.794v0c-0.347 0.551-0.739 0.93-1.175 1.136-0.442 0.21-0.831 0.275-1.166 0.197-0.325-0.076-0.566-0.214-0.72-0.416-0.158-0.192-0.277-0.373-0.358-0.543-0.08-0.17-0.175-0.392-0.283-0.667v0c-0.173-0.475-0.294-0.956-0.361-1.443-0.068-0.487-0.109-0.761-0.123-0.822v0c-0.23-1.331-0.375-2.833-0.433-4.505-0.052-1.675-0.036-2.964 0.049-3.865 0.082-0.892 0.183-1.523 0.305-1.893v0c0.243-0.739 0.598-1.219 1.065-1.44v0c0.321-0.152 0.65-0.022 0.987 0.389v0c0.052 0.079 0.109 0.182 0.169 0.31v0c0.227 0.479 0.346 1.168 0.357 2.068v0c0.064 3.281-0.379 6.089-1.327 8.425zM170.498 224.811c0.371-1.081 0.646-2.348 0.827-3.799 0.177-1.457 0.246-2.659 0.205-3.605-0.037-0.94-0.124-1.552-0.259-1.837-0.135-0.285-0.254-0.403-0.357-0.354v0c-0.139 0.066-0.272 0.474-0.399 1.225-0.136 0.747-0.196 2.005-0.182 3.772 0.017 1.774 0.072 3.306 0.165 4.598z" fill="#000000" data-fill-palette-color="primary"></path><path d="M194.503 204.387v0c-0.689-0.724-1.415-0.723-2.178 0.003v0c-0.087 0.083-0.18 0.181-0.278 0.292-0.103 0.116-0.184 0.166-0.245 0.15-0.066-0.011-0.098-0.059-0.097-0.144v0c-0.027-0.233 0.246-0.623 0.819-1.168 0.573-0.546 1.186-0.656 1.838-0.332v0c0.268 0.116 0.505 0.283 0.713 0.502v0c0.462 0.486 0.807 1.213 1.035 2.182v0c0.363 1.608 0.209 3.139-0.463 4.593v0c-0.342 0.76-0.848 1.459-1.519 2.097-0.675 0.643-1.51 0.997-2.503 1.062-0.984 0.066-1.961-0.241-2.93-0.92v0c-0.237-0.181-0.476-0.399-0.717-0.651v0c-0.647-0.68-1.216-1.643-1.707-2.889-0.5-1.246-0.718-2.691-0.654-4.336v0c0.097-3.119 0.863-5.719 2.301-7.8v0c0.403-0.578 0.792-1.045 1.166-1.401 0.374-0.356 0.709-0.642 1.004-0.857v0c0.802-0.568 1.67-0.756 2.604-0.562v0c0.741 0.137 1.436 0.546 2.083 1.226v0c0.583 0.612 1.005 1.192 1.266 1.74 0.257 0.543 0.424 0.902 0.5 1.08 0.081 0.173 0.193 0.451 0.335 0.833 0.137 0.388 0.226 0.637 0.266 0.747 0.04 0.11 0.144 0.4 0.313 0.869v0c0.509 1.488 0.777 2.228 0.806 2.219v0l-0.279-1.359c-0.323-1.721-0.545-3.453-0.668-5.197v0c-0.232-3.241-0.012-5.701 0.66-7.378v0c0.37-0.954 0.805-1.669 1.306-2.145 0.501-0.476 1.034-0.752 1.601-0.829 0.566-0.076 1.132 0.182 1.696 0.775 0.559 0.588 1.052 1.485 1.477 2.692 0.43 1.202 0.912 2.803 1.446 4.804 0.534 2.001 1.064 3.779 1.59 5.334 0.526 1.555 1.186 2.75 1.981 3.586v0c0.282 0.296 0.578 0.524 0.887 0.684v0c0.655 0.377 1.211 0.348 1.667-0.086v0c0.248-0.236 0.445-0.544 0.593-0.925 0.147-0.381 0.289-0.636 0.425-0.765 0.136-0.129 0.276-0.119 0.419 0.032 0.139 0.146 0.157 0.379 0.053 0.698-0.103 0.33-0.223 0.559-0.358 0.689v0c-1.813 1.725-3.47 1.797-4.973 0.218v0c-0.55-0.578-1.008-1.254-1.373-2.027-0.365-0.782-1.153-3.027-2.366-6.734-1.217-3.712-2.091-5.949-2.623-6.712v0c-0.073-0.125-0.153-0.234-0.241-0.327v0c-0.453-0.476-0.959-0.448-1.518 0.083v0c-0.374 0.356-0.681 0.884-0.922 1.586v0c-0.974 2.547-1.121 5.789-0.441 9.724v0c0.398 2.325 1.233 5.373 2.506 9.144v0c0.464 1.373 0.705 2.093 0.722 2.16v0c0.154 0.483-0.007 0.951-0.484 1.404v0c-0.282 0.268-0.523 0.321-0.722 0.16v0c-0.042-0.025-0.079-0.064-0.111-0.117v0c-0.223-1.325-0.877-3.54-1.963-6.646-1.085-3.106-2.213-5.639-3.383-7.599v0c-0.397-0.641-0.792-1.168-1.185-1.581-0.393-0.413-0.786-0.715-1.18-0.905v0c-0.811-0.376-1.543-0.337-2.195 0.116v0c-0.193 0.138-0.443 0.352-0.749 0.644-0.306 0.291-0.68 0.813-1.121 1.566-0.441 0.753-0.812 1.73-1.112 2.933v0c-0.703 2.696-0.625 5.27 0.235 7.72v0c0.465 1.326 1.07 2.38 1.814 3.162v0c0.379 0.398 0.788 0.727 1.228 0.984v0c1.267 0.582 2.394 0.449 3.384-0.399v0c1.166-1.11 1.722-2.569 1.667-4.378v0c-0.04-1.453-0.423-2.561-1.148-3.324z" fill="#000000" data-fill-palette-color="primary"></path><path d="M215.82 184.16c0.069 0.392 0.361 1.085 0.876 2.078 0.521 0.997 0.954 1.677 1.297 2.041 0.348 0.367 0.646 0.638 0.893 0.811 0.253 0.177 0.446 0.17 0.581-0.023v0c0.17-0.242 0.154-0.699-0.045-1.371v0c-0.283-0.986-0.768-2.104-1.455-3.357v0c-0.081-0.13-0.106-0.234-0.076-0.311v0c0.031-0.126 0.104-0.148 0.219-0.068v0c0.066 0.046 0.129 0.119 0.19 0.22v0c1.56 2.857 2.057 4.688 1.491 5.495v0c-0.258 0.368-0.651 0.543-1.18 0.525v0c-0.273-0.02-0.569-0.141-0.887-0.365-0.324-0.227-0.67-0.569-1.039-1.024v0c0.938 2.19 1.146 3.656 0.626 4.397v0c-0.146 0.209-0.343 0.349-0.591 0.422v0c-0.539 0.196-1.135 0.064-1.788-0.395v0c-1.257-0.882-2.152-2.322-2.685-4.318v0c-0.282-1.116-0.217-2.201 0.195-3.256v0c0.104-0.288 0.233-0.542 0.387-0.761v0c0.412-0.587 0.969-0.943 1.67-1.065v0c0.231-0.026 0.393 0.03 0.484 0.168 0.092 0.138 0.067 0.284-0.075 0.439v0c-0.558-0.186-1.004-0.041-1.339 0.437v0c-0.385 0.549-0.427 1.531-0.126 2.947v0c0.192 0.823 0.494 1.678 0.904 2.565v0c0.484 1.085 0.976 1.803 1.475 2.154 0.5 0.351 0.863 0.364 1.091 0.04v0c0.539-0.769 0.064-2.602-1.426-5.5v0c-0.299-0.578-0.478-1.012-0.538-1.3-0.055-0.284 0.009-0.555 0.189-0.813v0c0.035-0.049 0.146-0.168 0.336-0.355 0.185-0.182 0.3-0.334 0.345-0.458z" fill="#000000" data-fill-palette-color="primary"></path><path d="M218.993 173.228c0.066 0.287 0.038 0.546-0.086 0.776-0.127 0.236-0.313 0.376-0.558 0.42-0.242 0.053-0.47 0.002-0.684-0.151v0c-0.214-0.169-0.351-0.395-0.412-0.679-0.064-0.278-0.032-0.535 0.096-0.771 0.127-0.236 0.312-0.381 0.553-0.434 0.245-0.059 0.474-0.004 0.688 0.165 0.208 0.165 0.342 0.39 0.403 0.674zM225.503 179.348v0c0.143-0.266 0.16-0.615 0.049-1.047v0c-0.235-0.781-0.926-1.988-2.074-3.619v0c-0.153-0.212-0.162-0.343-0.029-0.393v0c0.04-0.017 0.092-0.008 0.157 0.028 0.059 0.032 0.179 0.169 0.361 0.411 0.182 0.243 0.346 0.461 0.494 0.654 0.141 0.19 0.362 0.53 0.662 1.02 0.297 0.495 0.505 0.908 0.625 1.238v0c0.348 0.911 0.385 1.62 0.111 2.128-0.27 0.502-0.615 0.781-1.033 0.838-0.428 0.059-0.828-0.011-1.2-0.212-0.372-0.2-0.73-0.511-1.075-0.932v0l-2.656-3.132c-0.067-0.074-0.171-0.149-0.313-0.226-0.136-0.073-0.358-0.086-0.665-0.038v0l0.583-1.148c0.172-0.319 0.331-0.473 0.478-0.463 0.15 0.005 0.311 0.144 0.483 0.42v0l2.984 3.731c0.381 0.51 0.751 0.861 1.112 1.056v0c0.402 0.216 0.717 0.112 0.946-0.314z" fill="#000000" data-fill-palette-color="primary"></path><path d="M226.909 167.034c0.055 0.044 0.227 0.19 0.518 0.438 0.294 0.257 0.583 0.49 0.866 0.7 0.278 0.207 0.572 0.374 0.883 0.5 0.311 0.126 0.63 0.169 0.958 0.128 0.331-0.032 0.562-0.206 0.69-0.523v0c0.212-0.522 0.065-1.175-0.441-1.96-0.503-0.776-1.186-1.662-2.049-2.657v0c-0.157-0.201-0.194-0.343-0.109-0.425v0c0.092-0.049 0.176-0.033 0.252 0.048 0.076 0.081 0.24 0.257 0.492 0.526 0.255 0.263 0.432 0.451 0.531 0.563 0.097 0.119 0.266 0.325 0.509 0.62 0.243 0.294 0.418 0.532 0.525 0.713 0.105 0.187 0.232 0.435 0.383 0.741 0.157 0.31 0.253 0.581 0.288 0.813v0c0.116 0.641 0.083 1.185-0.098 1.632-0.184 0.454-0.426 0.764-0.726 0.932-0.291 0.164-0.562 0.224-0.812 0.181-0.246-0.035-0.457-0.088-0.631-0.158-0.174-0.071-0.394-0.171-0.659-0.301v0c-0.448-0.233-0.862-0.506-1.242-0.819-0.379-0.313-0.595-0.488-0.646-0.523v0c-1.069-0.825-2.19-1.835-3.363-3.028-1.171-1.2-2.029-2.16-2.576-2.882-0.543-0.713-0.894-1.247-1.055-1.601v0c-0.32-0.709-0.383-1.303-0.188-1.782v0c0.134-0.329 0.464-0.456 0.99-0.379v0c0.092 0.023 0.203 0.061 0.334 0.114v0c0.491 0.199 1.045 0.627 1.661 1.283v0c2.264 2.375 3.836 4.744 4.715 7.106zM226.288 166.586c-0.458-1.047-1.111-2.167-1.959-3.359-0.854-1.194-1.616-2.126-2.285-2.796-0.663-0.667-1.14-1.06-1.432-1.179-0.292-0.119-0.46-0.125-0.503-0.019v0c-0.058 0.143 0.12 0.534 0.534 1.172 0.405 0.642 1.21 1.61 2.415 2.903 1.211 1.296 2.288 2.388 3.23 3.278z" fill="#000000" data-fill-palette-color="primary"></path><path d="M235.054 156.123v0c0.08-0.186 0.132-0.318 0.153-0.395v0c0.169-0.6-0.015-1.294-0.553-2.08v0c-0.305-0.427-1.133-1.271-2.486-2.53v0c-0.068-0.054-0.092-0.12-0.07-0.197v0c0.025-0.139 0.096-0.192 0.212-0.16v0c0.032 0.009 0.109 0.069 0.232 0.181 0.124 0.105 0.248 0.209 0.371 0.313 0.132 0.1 0.315 0.256 0.548 0.468 0.233 0.212 0.416 0.389 0.551 0.532 0.141 0.144 0.308 0.327 0.503 0.549 0.203 0.218 0.352 0.42 0.446 0.607v0l0.358 0.623c0.187 0.325 0.283 0.676 0.288 1.054v0c0.024 0.606-0.112 1.153-0.41 1.64v0c0.05 0.39 0.037 0.721-0.039 0.993v0c-0.302 1.072-0.904 1.602-1.808 1.591v0c-0.213-0.011-0.458-0.056-0.735-0.134-0.278-0.078-0.518-0.251-0.722-0.517-0.205-0.26-0.286-0.495-0.24-0.705v0c-1.247-1.188-2.382-2.218-3.405-3.092v0c-1.109-0.961-1.551-1.841-1.325-2.642v0c0.058-0.207 0.165-0.4 0.32-0.578 0.155-0.179 0.286-0.223 0.392-0.13 0.108 0.086 0.1 0.202-0.025 0.348-0.123 0.14-0.202 0.271-0.236 0.393-0.035 0.123-0.042 0.236-0.023 0.339v0c0.102 0.579 0.549 0.981 1.344 1.204v0c0.426 0.12 0.792 0.157 1.098 0.111 0.304-0.04 0.636-0.093 0.996-0.158v0c0.878-0.122 1.565-0.113 2.062 0.027v0c0.497 0.14 0.943 0.437 1.338 0.889 0.395 0.453 0.683 0.938 0.865 1.456zM234.671 156.852v0c-0.323-0.809-1.059-1.375-2.208-1.699v0c-0.465-0.131-1.119-0.259-1.961-0.385-0.844-0.119-1.412-0.22-1.702-0.302-0.284-0.08-0.475-0.144-0.573-0.193v0c1.968 1.795 3.163 2.898 3.583 3.309v0c0.089-0.316 0.36-0.411 0.812-0.283v0c0.891 0.251 1.574 0.102 2.049-0.447zM233.583 158.374v0c0.09 0.025 0.192 0.047 0.306 0.066v0c0.441-0.008 0.724-0.232 0.848-0.671v0c0.051-0.181 0.061-0.342 0.031-0.482v0c-0.5 0.465-1.151 0.61-1.951 0.432v0c0.195 0.348 0.45 0.566 0.766 0.655z" fill="#000000" data-fill-palette-color="primary"></path><path d="M3.355 123.341c0-4.596 3.725-8.321 8.321-8.32 4.596 0 8.321 3.725 8.321 8.32 0 4.596-3.725 8.321-8.321 8.321-4.596 0-8.321-3.725-8.321-8.321z" fill="#000000" data-fill-palette-color="primary"></path><path d="M227.203 123.341c0-4.596 3.725-8.321 8.321-8.32 4.596 0 8.321 3.725 8.321 8.32 0 4.596-3.725 8.321-8.321 8.321-4.596 0-8.321-3.725-8.321-8.321z" fill="#000000" data-fill-palette-color="primary"></path></g></svg></g></svg></g></svg></g><g></g></svg></g></svg></g><defs></defs></svg><rect width="247.2" height="247.2" fill="none" stroke="none" visibility="hidden"></rect></g></svg></g></svg>